<svg width="81" height="24" viewBox="0 0 81 24" fill="none" xmlns="http://www.w3.org/2000/svg">
<path d="M5.78298 11.6218C2.57361 11.6218 0 9.00236 0 5.81088C0 2.6194 2.60566 0 5.79824 0C7.86354 0 9.80137 1.14341 10.818 2.93748V5.98556H4.09777V5.1915L9.05417 4.22277V3.52406C8.11693 2.20597 6.86218 1.80932 5.79748 1.80932C3.5574 1.80932 1.87372 3.61941 1.87372 5.81012C1.87372 8.00083 3.52611 9.81092 5.78145 9.81092C7.14763 9.81092 8.2276 9.22357 8.91069 8.27086H10.8485V8.68352C9.81587 10.4776 7.87804 11.621 5.78069 11.621L5.78298 11.6218Z" fill="white"/>
<path d="M22.2103 11.3678H20.2083L14.6955 3.36545H14.346V11.3678H12.5669V0.238037H14.5688L20.0816 8.22437H20.4312V0.238037H22.2103V11.3678Z" fill="white"/>
<path d="M29.5646 11.6218C26.3713 11.6218 23.7664 9.01762 23.7664 5.8269C23.7664 2.63618 26.372 0 29.5646 0C32.7572 0 35.3628 2.63542 35.3628 5.8269C35.3628 9.01838 32.7572 11.6218 29.5646 11.6218ZM29.5646 1.81008C27.3726 1.81008 25.6408 3.58813 25.6408 5.8269C25.6408 8.06567 27.3726 9.81168 29.5646 9.81168C31.7566 9.81168 33.4884 8.0649 33.4884 5.8269C33.4884 3.58889 31.7566 1.81008 29.5646 1.81008Z" fill="white"/>
<path d="M46.6243 1.04809L42.6051 11.3678H39.5865L35.5674 1.04809V0.254028H37.3625L40.8894 9.62177H41.3183L44.8131 0.254028H46.6243V1.04809Z" fill="white"/>
<path d="M58.3162 0.253953V11.4158H56.4738V9.92299H56.1082C55.2824 11.0183 53.9635 11.6217 52.2157 11.6217C49.2926 11.6217 46.8464 8.97027 46.8464 5.82684C46.8464 2.68342 49.2926 0.0319824 52.2157 0.0319824C53.9635 0.0319824 55.2656 0.651363 56.1082 1.7307H56.4738V0.253953H58.3162ZM56.4738 5.82684C56.4738 3.5568 54.8054 1.7307 52.534 1.7307C50.4367 1.7307 48.7209 3.5568 48.7209 5.82684C48.7209 8.09689 50.4527 9.92299 52.534 9.92299C54.8054 9.92299 56.4738 8.09689 56.4738 5.82684Z" fill="white"/>
<path d="M80.776 0.254028H61.2175V11.4158H80.776V0.254028Z" fill="#03D353"/>
<path d="M65.3471 9.48748C63.826 9.48748 63.0444 8.31661 63.0444 7.29906H64.0725C64.0931 7.94666 64.5968 8.4501 65.3372 8.4501C66.1393 8.4501 66.6736 7.93674 66.6736 7.14498C66.6736 6.40508 66.108 5.86045 65.3166 5.86045H64.4221V4.97715L66.1699 3.23037V3.16859H63.1986V2.17163H67.5475V3.15791L65.7585 4.90468V4.96647C66.8995 5.05876 67.794 5.94283 67.794 7.1343C67.794 8.32576 66.8995 9.48672 65.3471 9.48672V9.48748ZM71.098 9.4974C69.741 9.4974 68.6412 8.49052 68.6412 7.08319C68.6412 6.57975 68.7854 6.12742 69.0113 5.73764L70.995 2.17239H72.2596L70.6767 4.80247L70.7179 4.84366C70.8515 4.79255 71.0675 4.75136 71.2629 4.75136C72.4657 4.75136 73.5762 5.64534 73.5762 7.08395C73.5762 8.52256 72.4558 9.49816 71.0988 9.49816L71.098 9.4974ZM71.098 8.46001C71.9101 8.46001 72.455 7.8536 72.455 7.08319C72.455 6.31278 71.9101 5.70637 71.098 5.70637C70.2859 5.70637 69.7517 6.33337 69.7517 7.08319C69.7517 7.83301 70.2859 8.46001 71.098 8.46001ZM76.794 9.4974C75.4576 9.4974 74.5012 8.61409 74.4295 7.39135H75.4576C75.5499 8.05955 76.0643 8.46993 76.7734 8.46993C77.5343 8.46993 78.1197 7.88411 78.1197 7.08319C78.1197 6.28227 77.5648 5.73764 76.7116 5.73764C76.043 5.73764 75.6942 6.1381 75.5804 6.33337H74.5524L74.8096 2.17239H78.7883V3.16935H75.7659L75.6324 5.1831H75.6942C75.7453 5.14191 76.1567 4.76204 76.9275 4.76204C78.2739 4.76204 79.2302 5.84062 79.2302 7.08395C79.2302 8.44018 78.2021 9.49816 76.794 9.49816V9.4974Z" fill="white"/>
<path d="M21.4619 15.3639C23.6378 15.3639 25.4014 17.1268 25.4014 19.3014C25.4013 21.476 23.6378 23.2389 21.4619 23.2389H3.93945C1.76375 23.2387 3.8105e-05 21.4759 0 19.3014C0 17.1269 1.76372 15.3641 3.93945 15.3639H21.4619ZM18.1992 18.2135C17.4742 18.2135 16.9287 18.7483 16.9287 19.5553C16.9287 20.3188 17.445 20.8834 18.209 20.8834C18.8369 20.8834 19.2885 20.5433 19.4199 20.0524H18.9238C18.8214 20.3 18.543 20.4557 18.2227 20.4557C17.7563 20.4557 17.4593 20.154 17.4395 19.7115H19.4434V19.5221C19.4434 18.7975 18.9921 18.2136 18.1992 18.2135ZM7.91699 18.2135C7.20721 18.2135 6.70511 18.7674 6.70508 19.5553C6.70508 20.343 7.21044 20.8811 7.94043 20.8815C8.44552 20.8815 8.69467 20.5566 8.7627 20.4596H8.79102V20.819H9.29297V18.277H8.78223V18.6461H8.74805C8.66563 18.5149 8.40227 18.2136 7.91699 18.2135ZM15.4385 18.2135C15.0593 18.2135 14.7957 18.4079 14.6934 18.6168H14.6602V18.277H14.1631V20.819L14.1641 20.8199H14.6748V19.3375C14.6748 18.9676 14.9381 18.6901 15.293 18.6901C15.6134 18.6902 15.8613 18.9293 15.8613 19.2838V20.8199H16.3721V19.1862C16.3721 18.637 16.0169 18.2135 15.4385 18.2135ZM4.0791 17.4156V20.819H4.60449V19.5504H5.33398C5.9522 19.5504 6.42383 19.1114 6.42383 18.4752C6.4238 17.8391 5.97126 17.4156 5.33398 17.4156H4.0791ZM11.2373 18.2721C10.8765 18.2722 10.6335 18.515 10.5557 18.7194H10.5215V18.277H10.0312V20.819H10.542V19.5651C10.5421 19.0939 10.7895 18.7684 11.2227 18.7682H11.4609V18.2721H11.2373ZM12.3369 17.5573V18.1158C12.3369 18.218 12.2733 18.2818 12.1855 18.2819H11.8496V18.6949H12.3066V20.0123C12.3067 20.5424 12.608 20.819 13.1094 20.819H13.5342V20.3864H13.1885C12.9206 20.3864 12.8184 20.24 12.8184 19.9967V18.694H13.5576V18.276H12.8184V17.5573H12.3369ZM21.2705 18.2721C20.9095 18.2721 20.6667 18.5149 20.5889 18.7194H20.5547V18.277H20.0635V20.819H20.5742V19.5651C20.5743 19.0938 20.8224 18.7682 21.2559 18.7682H21.4932V18.2721H21.2705ZM8.00879 18.6793C8.4568 18.6793 8.79785 19.0012 8.79785 19.5504C8.79769 20.0315 8.50059 20.4204 8.01465 20.4205C7.54843 20.4205 7.22575 20.0605 7.22559 19.5504C7.22559 19.0402 7.56095 18.6795 8.00879 18.6793ZM18.1992 18.6412C18.5929 18.6413 18.9041 18.8892 18.9385 19.317H17.4502C17.4884 18.9181 17.8054 18.6412 18.1992 18.6412ZM5.28613 17.8678C5.65083 17.8679 5.89353 18.1153 5.89355 18.4752C5.89355 18.8352 5.65085 19.0972 5.28613 19.0973H4.60449V17.8678H5.28613Z" fill="white"/>
</svg>
