<?xml version="1.0" encoding="UTF-8"?> <svg xmlns="http://www.w3.org/2000/svg" width="64" height="27" viewBox="0 0 64 27" fill="none"><g id="Frame 427319649"><g id="Frame 427319586"><g id="Frame 427319587"><g id="Frame 427319584"><g id="Frame 427319587_2"><g id="adastra 1" clip-path="url(#clip0_0_1)"><g id="Warstwa 1"><g id="Group"><g id="Group_2"><g id="Group_3"><path id="Vector" d="M32.3822 8.43408C31.7651 9.09027 30.8874 9.57148 30.0096 9.57148H28.9493C28.0976 9.57148 27.6456 9.13402 27.6456 8.43408V7.86538H25.5511L25.0384 9.04652C24.908 9.3265 24.543 9.57148 24.2475 9.57148H21.6924C21.449 9.57148 21.3534 9.37024 21.3969 9.13402C21.4143 9.06402 21.4403 8.99403 21.4838 8.92404L25.4468 1.56597C25.6033 1.29474 25.9422 1.04102 26.2377 1.04102H29.8531C30.1486 1.04102 30.3746 1.29474 30.4181 1.56597L31.122 7.7254C31.1655 8.08411 31.6348 8.2766 31.939 8.2766C32.1389 8.2766 32.3301 8.16286 32.4604 7.99662L32.3735 8.43408H32.3822ZM27.6283 2.99208L26.09 6.6055H27.6543L27.6283 2.99208Z" fill="black"></path><path id="Vector_2" d="M39.7354 7.72532C39.6659 8.02279 39.8658 8.25027 40.1613 8.25027C40.3698 8.25027 40.5697 8.13653 40.7001 7.97904L40.6045 8.4165C39.9788 9.08144 39.1183 9.5364 38.2493 9.5714C37.7278 9.5714 37.1368 9.36142 36.9109 9.05519C36.8153 9.15143 36.6675 9.26517 36.5284 9.32642C36.2156 9.45766 35.894 9.5714 35.5377 9.5714H33.8256C32.9825 9.5714 32.4003 9.05519 32.5219 8.434L33.4866 3.88442C33.617 3.25448 34.4166 2.74703 35.2683 2.74703H36.9804C37.3628 2.74703 37.6843 2.84327 37.9103 3.01825L38.2319 1.45215C38.2927 1.20717 38.5187 1.02344 38.7533 1.02344H40.7262C40.9521 1.02344 41.1086 1.20717 41.0477 1.45215L39.7354 7.72532ZM37.0412 3.74444C36.6501 3.74444 36.2677 4.10315 36.1634 4.55811L35.4855 7.76906C35.3899 8.22402 35.6246 8.58274 36.0244 8.58274C36.4242 8.58274 36.7979 8.24152 36.8848 7.81281L37.5801 4.53186C37.6757 4.0944 37.4236 3.75318 37.0412 3.75318V3.74444Z" fill="black"></path></g><g id="Group_4"><path id="Vector_3" d="M32.3822 18.4869C31.7651 19.143 30.8874 19.6243 30.0096 19.6243H28.9493C28.0976 19.6243 27.6456 19.1868 27.6456 18.4869V17.9182H25.5511L25.0384 19.0993C24.908 19.3793 24.543 19.6243 24.2475 19.6243H21.6924C21.449 19.6243 21.3534 19.423 21.3969 19.1868C21.4143 19.1168 21.4403 19.0468 21.4838 18.9768L25.4382 11.6275C25.5946 11.3563 25.9335 11.1025 26.229 11.1025H29.8445C30.1399 11.1025 30.3659 11.3563 30.4094 11.6275L31.1133 17.7869C31.1568 18.1456 31.6261 18.3381 31.9303 18.3381C32.1302 18.3381 32.3214 18.2244 32.4517 18.0581L32.3648 18.4956L32.3822 18.4869ZM27.6196 13.0449L26.0813 16.6583H27.6456L27.6196 13.0449Z" fill="black"></path><path id="Vector_4" d="M41.1084 14.6108C40.4826 15.2758 39.7526 15.2233 39.3267 15.2233H38.7358C37.8927 15.2233 37.6668 15.0921 37.5538 14.5933C37.4669 14.1646 37.3105 13.8672 36.8933 13.8672C36.4761 13.8672 36.1198 14.1821 36.0329 14.5933C35.9373 15.0658 35.9634 15.477 36.4848 15.6433L38.1795 16.1682C39.2398 16.4832 39.6918 16.6932 39.4658 17.7431L39.3094 18.478C39.1529 19.2479 38.1795 19.6154 37.5277 19.6154H33.8254C33.1736 19.6154 32.374 19.2479 32.5217 18.478L32.7043 17.6293C32.7477 17.3843 32.9737 17.2006 33.217 17.2006H35.0508C35.4332 17.2006 35.4071 17.5243 35.3463 17.8131C35.2594 18.2243 35.4767 18.5567 35.8938 18.5567C36.311 18.5567 36.6673 18.233 36.7542 17.8131C36.8498 17.3318 36.8411 16.9469 36.3023 16.7719L34.6076 16.2469C33.5473 15.932 33.1127 15.6782 33.3213 14.6721L33.4778 13.9284C33.6429 13.1585 34.6076 12.791 35.2594 12.791H38.9357C39.5875 12.791 40.387 13.1585 40.2393 13.9284C40.1871 14.2259 40.3697 14.4271 40.6825 14.4271C40.8824 14.4271 41.0736 14.3134 41.2214 14.1559L41.1258 14.5933L41.1084 14.6108Z" fill="black"></path><path id="Vector_5" d="M48.6943 16.3694C48.6422 16.1944 48.4857 16.0894 48.2685 16.0894C47.973 16.0894 47.6775 16.3431 47.6167 16.6406L47.2256 18.4867C47.0952 19.1166 46.2956 19.6241 45.4439 19.6241H41.7416C40.8986 19.6241 40.3163 19.1078 40.4379 18.4867L41.8198 11.916C41.8806 11.671 42.1066 11.4873 42.3413 11.4873H44.3141C44.5401 11.4873 44.6965 11.671 44.6357 11.916L44.4532 12.8084H47.0952C47.3385 12.8084 47.4863 12.9922 47.4341 13.2371L47.3646 13.5784C47.3038 13.8058 47.0865 14.0071 46.8432 14.0071H44.2011L43.3929 17.8217C43.2973 18.2767 43.5319 18.6354 43.9317 18.6354C44.3315 18.6354 44.7052 18.2942 44.8095 17.8567L45.2006 15.9406C45.3309 15.3544 46.2435 15.0482 47.0083 15.0482C47.7818 15.0657 48.451 15.3194 48.7725 15.9319L48.6769 16.3869L48.6943 16.3694Z" fill="black"></path><path id="Vector_6" d="M56.7428 14.6109C56.2039 15.1796 55.5 15.7045 54.7526 15.7045C54.0921 15.722 53.4142 15.1358 53.5271 14.6109C53.6227 14.1559 53.3881 13.7972 52.9883 13.7972C52.5885 13.7972 52.2148 14.1559 52.1105 14.6109L51.1371 19.2042C51.0937 19.4492 50.8677 19.6329 50.6244 19.6329H48.6515C48.4082 19.6329 48.2691 19.4492 48.3126 19.2042L49.5815 13.2285C49.6249 12.9835 49.8509 12.7998 50.0942 12.7998H52.0671L52.3191 13.1235C52.6407 12.9223 53.0578 12.7998 53.475 12.7998H54.5614C55.4044 12.7998 55.9867 13.316 55.865 13.9372C55.7955 14.2347 55.9954 14.4359 56.2995 14.4359C56.4994 14.4359 56.6906 14.3222 56.821 14.1647L56.7341 14.6021L56.7428 14.6109Z" fill="black"></path><path id="Vector_7" d="M63.8955 18.5044C63.2698 19.1605 62.4267 19.6243 61.5403 19.6243C61.0188 19.6243 60.4278 19.423 60.2019 19.143C60.0454 19.2568 59.889 19.3705 59.8195 19.4143C59.524 19.5543 59.185 19.6418 58.8287 19.6418H57.1166C56.2736 19.6418 55.6913 19.143 55.8129 18.5044L56.7776 13.9548C56.908 13.3248 57.7076 12.8174 58.5593 12.8174H60.2714C60.6972 12.8174 61.0449 12.9486 61.2882 13.1586L61.6793 12.8174H63.6609C63.9042 12.8174 64.0433 13.0186 63.9998 13.2461L63.0438 17.7957C62.9743 18.0931 63.1742 18.3381 63.4697 18.3381C63.6782 18.3381 63.8781 18.2244 64.0085 18.0581L63.9129 18.5131L63.8955 18.5044ZM60.3322 13.8148C59.9411 13.8148 59.5587 14.1823 59.4544 14.6285L58.7765 17.8569C58.6809 18.2944 58.9156 18.6531 59.3154 18.6531C59.7152 18.6531 60.0889 18.3294 60.1758 17.8832L60.8711 14.6285C60.9667 14.191 60.732 13.8148 60.3322 13.8148Z" fill="black"></path></g><path id="Vector_8" d="M3.95498 0C3.95498 1.97732 5.54542 3.58717 7.50957 3.58717C5.54542 3.58717 3.95498 5.18827 3.95498 7.16559C3.95498 5.18827 2.36454 3.58717 0.400391 3.58717C2.36454 3.58717 3.95498 1.97732 3.95498 0Z" fill="#71CCD6"></path><path id="Vector_9" d="M10.8124 13.1325C9.56087 13.4212 8.3876 13.7361 7.30123 14.0686C7.64018 13.15 8.16163 12.5113 8.47451 12.1613C10.8645 9.49279 13.2458 6.83304 15.6445 4.14704C14.9232 5.60815 13.663 8.54788 13.4283 11.7501C14.7754 11.4789 16.0182 11.3476 17.122 11.3039C17.4001 9.30031 18.1823 7.52423 18.7124 6.34308C19.6945 4.12079 20.9981 2.46719 22.0932 1.3123H18.1736H18.1823L14.4365 1.26855C10.1519 5.59065 5.86723 9.68528 1.57391 13.8761C-0.564059 15.9759 0.913399 19.6244 3.89439 19.6244H9.248C8.66571 19.4144 7.77054 18.9594 7.2404 17.9795C7.07527 17.6908 6.98836 17.4108 6.92752 17.1221C7.7097 16.6059 8.56142 16.0984 9.46527 15.626C10.795 14.926 12.116 14.3573 13.4196 13.9024C13.5326 15.3198 13.915 16.7459 14.6711 18.067C14.9666 18.5832 15.323 19.0994 15.7662 19.6156H21.0677C20.0074 18.9507 18.6081 17.7958 17.7651 15.9759C17.2784 14.9348 17.0698 13.8849 17.0525 12.8612C20.6505 12.0388 23.8748 11.9688 26.2388 12.0738C23.9704 11.8726 21.4066 11.8026 18.5821 11.9951C18.1823 12.0213 17.7999 12.0563 17.4175 12.0913C16.1486 12.205 14.7928 12.38 13.3762 12.625C12.933 12.7037 12.4984 12.7737 12.0726 12.87" fill="#71CCD6"></path></g><g id="Group_5"><path id="Vector_10" d="M2.86801 26.0632H2.3987C2.3031 26.0632 2.23357 26.0282 2.19011 25.9495L1.18197 24.5496C1.18197 24.5496 1.12113 24.4709 1.08637 24.4534C1.0516 24.4359 0.999457 24.4271 0.921238 24.4271H0.521456V26.0545H0V22.1523H1.09506C1.3384 22.1523 1.55568 22.1786 1.72949 22.2311C1.912 22.2836 2.05975 22.3536 2.17273 22.4498C2.28571 22.5461 2.37262 22.6598 2.43346 22.791C2.48561 22.9223 2.52037 23.071 2.52037 23.2372C2.52037 23.3772 2.50299 23.5085 2.45953 23.6222C2.41608 23.7447 2.35524 23.8497 2.26833 23.9459C2.18142 24.0422 2.08582 24.1209 1.96415 24.1909C1.84248 24.2609 1.71211 24.3134 1.56437 24.3396C1.63389 24.3746 1.68604 24.4359 1.73819 24.5059L2.86801 26.0545V26.0632ZM1.07768 24.0509C1.22542 24.0509 1.36448 24.0334 1.47746 23.9984C1.59044 23.9634 1.69473 23.9109 1.77295 23.8409C1.85117 23.7709 1.912 23.6922 1.94677 23.596C1.98153 23.4997 2.0076 23.3947 2.0076 23.281C2.0076 23.0448 1.92939 22.8698 1.78164 22.756C1.63389 22.6423 1.39924 22.5811 1.09506 22.5811H0.521456V24.0597H1.07768V24.0509Z" fill="black"></path><path id="Vector_11" d="M5.32751 25.6784C5.26667 25.7484 5.19714 25.8184 5.11023 25.8709C5.02332 25.9234 4.93641 25.9672 4.84081 26.0022C4.74521 26.0372 4.64961 26.0634 4.54532 26.0809C4.44103 26.0984 4.34543 26.1072 4.24114 26.1072C4.04994 26.1072 3.87612 26.0722 3.71968 26.0109C3.56325 25.9497 3.42419 25.8534 3.30252 25.7309C3.18954 25.6085 3.09394 25.451 3.0331 25.2672C2.97226 25.0835 2.9375 24.8735 2.9375 24.6373C2.9375 24.4448 2.96357 24.2611 3.02441 24.0948C3.08525 23.9286 3.16346 23.7799 3.27645 23.6574C3.38943 23.5349 3.51979 23.4387 3.67623 23.3687C3.83267 23.2987 4.01517 23.2637 4.21507 23.2637C4.38019 23.2637 4.52794 23.2899 4.67569 23.3512C4.81474 23.4037 4.93641 23.4824 5.0407 23.5874C5.145 23.6924 5.22321 23.8236 5.28405 23.9724C5.34489 24.1298 5.37096 24.3048 5.37096 24.4973C5.37096 24.5761 5.37096 24.6285 5.34489 24.646C5.32751 24.6723 5.30143 24.681 5.24929 24.681H3.4155C3.4155 24.856 3.44157 25.0048 3.48503 25.136C3.52848 25.2672 3.58932 25.3722 3.65885 25.4597C3.73707 25.5472 3.82397 25.6085 3.92827 25.6522C4.03256 25.6959 4.15423 25.7134 4.28459 25.7134C4.40627 25.7134 4.51056 25.6959 4.59747 25.6697C4.68438 25.6435 4.7626 25.6085 4.82343 25.5822C4.88427 25.5472 4.93641 25.521 4.97987 25.4947C5.02332 25.4685 5.05809 25.451 5.09285 25.451C5.13631 25.451 5.16238 25.4685 5.18845 25.4947L5.32751 25.6697V25.6784ZM4.93641 24.3836C4.93641 24.2698 4.91903 24.1648 4.89296 24.0773C4.8582 23.9811 4.81474 23.9024 4.7539 23.8324C4.69307 23.7624 4.62354 23.7099 4.53663 23.6749C4.44972 23.6399 4.35412 23.6224 4.24114 23.6224C4.00648 23.6224 3.82397 23.6924 3.69361 23.8236C3.56325 23.9549 3.47634 24.1473 3.44157 24.3836H4.9451H4.93641Z" fill="black"></path><path id="Vector_12" d="M5.89296 23.6923C6.04071 23.5436 6.20583 23.4386 6.37965 23.3599C6.55347 23.2899 6.74467 23.2549 6.96195 23.2549C7.11838 23.2549 7.24875 23.2811 7.37042 23.3336C7.49209 23.3861 7.58769 23.4561 7.6746 23.5436C7.75282 23.6311 7.81366 23.7448 7.85711 23.8761C7.90057 24.0073 7.91795 24.1473 7.91795 24.3048V26.0721H7.70067C7.65722 26.0721 7.61376 26.0721 7.59638 26.0459C7.579 26.0196 7.55293 26.0021 7.53555 25.9584L7.4834 25.6959C7.41387 25.7659 7.34435 25.8184 7.27482 25.8709C7.20529 25.9234 7.13576 25.9671 7.05755 26.0021C6.97933 26.0371 6.90111 26.0634 6.8142 26.0809C6.72729 26.0984 6.63169 26.1071 6.5274 26.1071C6.42311 26.1071 6.31882 26.0896 6.22322 26.0634C6.12762 26.0371 6.0494 25.9846 5.97987 25.9321C5.91034 25.8796 5.8582 25.7921 5.81474 25.7047C5.77129 25.6172 5.75391 25.5034 5.75391 25.3809C5.75391 25.2759 5.77998 25.171 5.84082 25.066C5.90165 24.961 5.99725 24.8735 6.12762 24.7947C6.25798 24.716 6.4318 24.6548 6.64907 24.6023C6.86635 24.5498 7.12707 24.5235 7.43995 24.5148V24.296C7.43995 24.0861 7.39649 23.9198 7.30089 23.8061C7.20529 23.6923 7.07493 23.6398 6.90111 23.6398C6.77944 23.6398 6.68384 23.6573 6.60562 23.6836C6.5274 23.7098 6.45787 23.7448 6.39704 23.7886C6.3362 23.8323 6.28405 23.8586 6.24929 23.8936C6.20583 23.9198 6.16238 23.9373 6.12762 23.9373C6.09285 23.9373 6.06678 23.9373 6.04071 23.9111C6.01463 23.8936 5.99725 23.8761 5.97987 23.8498L5.89296 23.6923ZM7.44864 24.821C7.22267 24.821 7.04016 24.8472 6.88373 24.8735C6.72729 24.8997 6.59693 24.9347 6.50133 24.9872C6.40573 25.031 6.32751 25.0835 6.28405 25.1447C6.2406 25.206 6.21453 25.2759 6.21453 25.3547C6.21453 25.4334 6.22322 25.4859 6.24929 25.5384C6.27536 25.5909 6.30144 25.6347 6.34489 25.6697C6.38834 25.7047 6.4318 25.7309 6.49264 25.7397C6.54478 25.7572 6.60562 25.7659 6.66645 25.7659C6.75336 25.7659 6.83158 25.7659 6.90111 25.7397C6.97064 25.7134 7.04016 25.6959 7.101 25.6609C7.16184 25.6259 7.22267 25.5909 7.28351 25.5472C7.34435 25.5034 7.39649 25.4509 7.44864 25.3897V24.821Z" fill="black"></path><path id="Vector_13" d="M10.5589 23.7885C10.5589 23.7885 10.5328 23.8235 10.5154 23.8322C10.498 23.841 10.4807 23.8497 10.4546 23.8497C10.4285 23.8497 10.3937 23.841 10.3677 23.8147C10.3329 23.7885 10.2981 23.771 10.246 23.736C10.1939 23.7097 10.1417 23.6835 10.0722 23.6572C10.0027 23.631 9.91574 23.6222 9.82014 23.6222C9.68109 23.6222 9.56811 23.6485 9.46381 23.6922C9.35952 23.736 9.27261 23.806 9.20309 23.9022C9.13356 23.9897 9.08141 24.1034 9.04665 24.2347C9.01189 24.3659 8.9945 24.5059 8.9945 24.6721C8.9945 24.8384 9.01189 24.9871 9.05534 25.1183C9.0988 25.2496 9.15094 25.3546 9.22047 25.4421C9.29 25.5296 9.37691 25.5995 9.47251 25.6433C9.56811 25.687 9.68109 25.7133 9.80276 25.7133C9.92443 25.7133 10.02 25.6958 10.0896 25.6695C10.1591 25.6433 10.2286 25.6083 10.2808 25.5733C10.3329 25.5383 10.3677 25.5033 10.4024 25.4771C10.4372 25.4508 10.472 25.4333 10.498 25.4333C10.5415 25.4333 10.5676 25.4508 10.5936 25.4771L10.7327 25.652C10.6719 25.7308 10.6023 25.792 10.5328 25.8445C10.4546 25.897 10.3764 25.9408 10.2895 25.9758C10.2025 26.0108 10.1069 26.037 10.0113 26.0545C9.91574 26.072 9.82014 26.0808 9.71585 26.0808C9.54203 26.0808 9.3856 26.0458 9.23785 25.9845C9.0901 25.9233 8.95974 25.827 8.85545 25.7045C8.75116 25.582 8.66425 25.4333 8.60341 25.2583C8.54258 25.0833 8.50781 24.8821 8.50781 24.6546C8.50781 24.4534 8.53389 24.2609 8.59472 24.0859C8.65556 23.911 8.73378 23.7622 8.84676 23.631C8.95974 23.5085 9.09011 23.4035 9.24654 23.3335C9.40298 23.2635 9.59418 23.2285 9.79407 23.2285C9.98527 23.2285 10.1591 23.2635 10.3068 23.3248C10.4546 23.386 10.5849 23.4735 10.6979 23.5872L10.5676 23.7622L10.5589 23.7885Z" fill="black"></path><path id="Vector_14" d="M11.7241 23.6664C11.8458 23.5439 11.9674 23.4389 12.1152 23.3689C12.2542 23.2902 12.4194 23.2552 12.6106 23.2552C12.7583 23.2552 12.8887 23.2814 13.0104 23.3339C13.1233 23.3864 13.2189 23.4564 13.2972 23.5439C13.3754 23.6314 13.4362 23.7452 13.471 23.8764C13.5144 24.0076 13.5318 24.1476 13.5318 24.3051V26.0637H13.0451V24.3051C13.0451 24.0951 13.0017 23.9376 12.9061 23.8151C12.8105 23.7014 12.6714 23.6402 12.4715 23.6402C12.3325 23.6402 12.1934 23.6752 12.0717 23.7452C11.9501 23.8151 11.8371 23.9114 11.7328 24.0251V26.0549H11.2461V22.0391H11.7328V23.6577L11.7241 23.6664Z" fill="black"></path><path id="Vector_15" d="M16.9997 22.1523C17.2344 22.1523 17.443 22.1786 17.6168 22.2223C17.7906 22.2661 17.9297 22.3361 18.0426 22.4236C18.1556 22.5111 18.2339 22.6161 18.286 22.7473C18.3381 22.8698 18.3642 23.0185 18.3642 23.176C18.3642 23.2722 18.3468 23.3685 18.3208 23.456C18.2947 23.5435 18.2425 23.6222 18.1904 23.701C18.1296 23.7797 18.0513 23.8497 17.9644 23.9109C17.8775 23.9722 17.7645 24.0247 17.6429 24.0597C17.9297 24.1122 18.1382 24.2172 18.286 24.3659C18.4337 24.5146 18.5033 24.7159 18.5033 24.9521C18.5033 25.1183 18.4772 25.2671 18.4164 25.407C18.3555 25.547 18.2686 25.6608 18.1469 25.757C18.0253 25.8533 17.8862 25.932 17.7211 25.9845C17.556 26.037 17.3561 26.0632 17.1388 26.0632H15.7656V22.1611H16.9997V22.1523ZM16.2871 22.5723V23.9022H16.9824C17.1301 23.9022 17.2605 23.8847 17.3648 23.8497C17.4777 23.8147 17.5646 23.7709 17.6342 23.7097C17.7037 23.6485 17.7558 23.5785 17.7906 23.4997C17.8254 23.421 17.8428 23.3247 17.8428 23.2285C17.8428 23.001 17.7732 22.826 17.6342 22.721C17.4951 22.6161 17.2865 22.5636 16.991 22.5636H16.2784L16.2871 22.5723ZM17.1214 25.6433C17.2692 25.6433 17.3995 25.6258 17.5125 25.5908C17.6255 25.5558 17.7124 25.5033 17.7819 25.442C17.8514 25.3808 17.9036 25.3021 17.9384 25.2146C17.9731 25.1271 17.9905 25.0308 17.9905 24.9258C17.9905 24.7246 17.921 24.5671 17.7732 24.4446C17.6342 24.3309 17.4169 24.2696 17.1301 24.2696H16.2871V25.6258H17.1301L17.1214 25.6433Z" fill="black"></path><path id="Vector_16" d="M21.3353 25.6784C21.2745 25.7484 21.205 25.8184 21.118 25.8709C21.0311 25.9234 20.9442 25.9672 20.8486 26.0022C20.753 26.0372 20.6574 26.0634 20.5531 26.0809C20.4488 26.0984 20.3532 26.1072 20.249 26.1072C20.0578 26.1072 19.8839 26.0722 19.7275 26.0109C19.5711 25.9497 19.432 25.8534 19.3103 25.7309C19.1973 25.6085 19.1017 25.451 19.0409 25.2672C18.9801 25.0835 18.9453 24.8735 18.9453 24.6373C18.9453 24.4448 18.9714 24.2611 19.0322 24.0948C19.0931 23.9286 19.1713 23.7799 19.2843 23.6574C19.3972 23.5349 19.5276 23.4387 19.684 23.3687C19.8405 23.2987 20.023 23.2637 20.2229 23.2637C20.388 23.2637 20.5358 23.2899 20.6835 23.3512C20.8226 23.4037 20.9442 23.4824 21.0485 23.5874C21.1528 23.6924 21.231 23.8236 21.2919 23.9724C21.3527 24.1298 21.3788 24.3048 21.3788 24.4973C21.3788 24.5761 21.3788 24.6285 21.3527 24.646C21.3353 24.6723 21.3092 24.681 21.2571 24.681H19.4233C19.4233 24.856 19.4494 25.0048 19.4928 25.136C19.5363 25.2672 19.5971 25.3722 19.6667 25.4597C19.7449 25.5472 19.8318 25.6085 19.9361 25.6522C20.0404 25.6959 20.162 25.7134 20.2924 25.7134C20.4141 25.7134 20.5184 25.6959 20.6053 25.6697C20.6922 25.6435 20.7704 25.6085 20.8312 25.5822C20.8921 25.5472 20.9442 25.521 20.9877 25.4947C21.0311 25.4685 21.0659 25.451 21.1007 25.451C21.1441 25.451 21.1702 25.4685 21.1963 25.4947L21.3353 25.6697V25.6784ZM20.9442 24.3836C20.9442 24.2698 20.9268 24.1648 20.9008 24.0773C20.866 23.9811 20.8226 23.9024 20.7617 23.8324C20.7009 23.7624 20.6314 23.7099 20.5444 23.6749C20.4575 23.6399 20.3619 23.6224 20.249 23.6224C20.0143 23.6224 19.8318 23.6924 19.7014 23.8236C19.5711 23.9549 19.4842 24.1473 19.4494 24.3836H20.9529H20.9442Z" fill="black"></path><path id="Vector_17" d="M24.2656 23.2988L22.736 26.8772C22.736 26.8772 22.7012 26.9385 22.6751 26.9647C22.6491 26.9822 22.6143 26.9997 22.5622 26.9997H22.2058L22.7099 25.9061L21.5801 23.3076H21.9972C21.9972 23.3076 22.0755 23.3163 22.0928 23.3426C22.1189 23.3601 22.1363 23.3863 22.145 23.4126L22.875 25.1537C22.9011 25.2324 22.9272 25.3111 22.9446 25.3899C22.9706 25.3024 22.9967 25.2237 23.0228 25.1449L23.7354 23.4126C23.7354 23.4126 23.7615 23.3601 23.7876 23.3426C23.8136 23.3251 23.8397 23.3163 23.8745 23.3163H24.2569L24.2656 23.2988Z" fill="black"></path><path id="Vector_18" d="M25.7694 23.2549C25.9693 23.2549 26.1518 23.2899 26.3082 23.3599C26.4646 23.4299 26.6037 23.5261 26.7167 23.6486C26.8297 23.7711 26.9166 23.9198 26.9774 24.0948C27.0382 24.2698 27.0643 24.4623 27.0643 24.681C27.0643 24.8997 27.0382 25.0922 26.9774 25.2672C26.9166 25.4422 26.8297 25.5909 26.7167 25.7134C26.6037 25.8359 26.4646 25.9321 26.3082 26.0021C26.1518 26.0721 25.9693 26.0984 25.7694 26.0984C25.5695 26.0984 25.387 26.0634 25.2218 26.0021C25.0567 25.9321 24.9263 25.8446 24.8047 25.7134C24.683 25.5822 24.6048 25.4422 24.5439 25.2672C24.4831 25.0922 24.457 24.8997 24.457 24.681C24.457 24.4623 24.4831 24.2698 24.5439 24.0948C24.6048 23.9198 24.6917 23.7711 24.8047 23.6486C24.9177 23.5261 25.0567 23.4299 25.2218 23.3599C25.387 23.2899 25.5695 23.2549 25.7694 23.2549ZM25.7694 25.7222C26.0388 25.7222 26.2387 25.6347 26.3777 25.4509C26.5168 25.2672 26.5776 25.0135 26.5776 24.6897C26.5776 24.366 26.5081 24.1036 26.3777 23.9198C26.2474 23.7361 26.0388 23.6486 25.7694 23.6486C25.6303 23.6486 25.5086 23.6748 25.413 23.7186C25.3174 23.7623 25.2305 23.8323 25.161 23.9198C25.0915 24.0073 25.0393 24.1211 25.0133 24.2523C24.9785 24.3835 24.9611 24.5323 24.9611 24.6897C24.9611 25.0135 25.0306 25.2759 25.161 25.4509C25.2914 25.6259 25.4999 25.7222 25.7781 25.7222H25.7694Z" fill="black"></path><path id="Vector_19" d="M28.1403 23.7011C28.2011 23.6311 28.262 23.5699 28.3315 23.5174C28.401 23.4649 28.4706 23.4124 28.5401 23.3774C28.6183 23.3424 28.6965 23.3074 28.7747 23.2899C28.8617 23.2724 28.9486 23.2549 29.0442 23.2549C29.1919 23.2549 29.3223 23.2811 29.4439 23.3336C29.5569 23.3861 29.6525 23.4561 29.7307 23.5436C29.809 23.6311 29.8698 23.7448 29.9046 23.8761C29.948 24.0073 29.9654 24.1473 29.9654 24.3048V26.0634H29.4787V24.3048C29.4787 24.0948 29.4353 23.9373 29.3397 23.8148C29.2441 23.7011 29.105 23.6398 28.9051 23.6398C28.7661 23.6398 28.627 23.6748 28.5053 23.7448C28.3837 23.8148 28.2707 23.9111 28.1664 24.0248V26.0546H27.6797V23.2899H27.9665C28.036 23.2899 28.0795 23.3249 28.0969 23.3949L28.1316 23.6923L28.1403 23.7011Z" fill="black"></path><path id="Vector_20" d="M32.9727 22.0479V26.0637H32.6859C32.6164 26.0637 32.5729 26.0287 32.5556 25.9587L32.5121 25.6263C32.3904 25.7663 32.2601 25.88 32.1123 25.9675C31.9646 26.055 31.7908 26.0987 31.5909 26.0987C31.4344 26.0987 31.2954 26.0725 31.165 26.0112C31.0346 25.95 30.9304 25.8625 30.8348 25.74C30.7391 25.6175 30.6783 25.4775 30.6262 25.3025C30.574 25.1276 30.5566 24.9263 30.5566 24.6989C30.5566 24.4976 30.5827 24.3051 30.6349 24.1302C30.687 23.9552 30.7652 23.8064 30.8695 23.6752C30.9738 23.544 31.0955 23.4477 31.2432 23.369C31.391 23.299 31.5561 23.2552 31.7386 23.2552C31.9037 23.2552 32.0515 23.2815 32.1732 23.3427C32.2948 23.404 32.3991 23.4827 32.4947 23.579V22.0479H32.9727ZM32.4947 23.9552C32.4078 23.8327 32.3035 23.7452 32.1992 23.7014C32.0949 23.6577 31.9733 23.6315 31.8429 23.6315C31.5909 23.6315 31.391 23.7189 31.2519 23.9027C31.1129 24.0864 31.0433 24.3489 31.0433 24.6901C31.0433 24.8738 31.0607 25.0226 31.0868 25.1538C31.1216 25.2851 31.165 25.39 31.2258 25.4688C31.2867 25.5475 31.3562 25.6088 31.4431 25.6525C31.53 25.6875 31.6256 25.7138 31.7386 25.7138C31.895 25.7138 32.0341 25.6788 32.1558 25.6088C32.2774 25.5388 32.3817 25.4338 32.486 25.3025V23.9727L32.4947 23.9552Z" fill="black"></path><path id="Vector_21" d="M35.972 26.1071C35.7547 26.1071 35.5896 26.0459 35.4766 25.9234C35.3636 25.8009 35.3028 25.6259 35.3028 25.3984V23.7098H34.9726C34.9726 23.7098 34.9204 23.7098 34.903 23.6836C34.8856 23.6661 34.877 23.6398 34.877 23.6048V23.4124L35.3289 23.3511L35.4419 22.4937C35.4419 22.4937 35.4592 22.4412 35.4766 22.4237C35.494 22.4062 35.5201 22.3975 35.5548 22.3975H35.7982V23.3511H36.5891V23.7011H35.7982V25.3547C35.7982 25.4684 35.8243 25.5559 35.8851 25.6172C35.9459 25.6784 36.0155 25.7047 36.1024 25.7047C36.1545 25.7047 36.198 25.7047 36.2327 25.6872C36.2675 25.6697 36.3023 25.6609 36.3283 25.6434C36.3544 25.6259 36.3805 25.6084 36.3979 25.5997C36.4152 25.5909 36.4326 25.5822 36.45 25.5822C36.4761 25.5822 36.4935 25.5997 36.5195 25.6259L36.6586 25.8534C36.5717 25.9321 36.4761 25.9934 36.3544 26.0371C36.2327 26.0809 36.1198 26.1071 35.9894 26.1071H35.972Z" fill="black"></path><path id="Vector_22" d="M37.5542 23.6664C37.6758 23.5439 37.7975 23.4389 37.9453 23.3689C38.0843 23.2902 38.2494 23.2552 38.4406 23.2552C38.5884 23.2552 38.7188 23.2814 38.8404 23.3339C38.9534 23.3864 39.049 23.4564 39.1272 23.5439C39.2055 23.6314 39.2663 23.7452 39.3011 23.8764C39.3445 24.0076 39.3619 24.1476 39.3619 24.3051V26.0637H38.8752V24.3051C38.8752 24.0951 38.8317 23.9376 38.7361 23.8151C38.6405 23.7014 38.5015 23.6402 38.3016 23.6402C38.1625 23.6402 38.0235 23.6752 37.9018 23.7452C37.7801 23.8151 37.6672 23.9114 37.5629 24.0251V26.0549H37.0762V22.0391H37.5629V23.6577L37.5542 23.6664Z" fill="black"></path><path id="Vector_23" d="M42.3158 25.6784C42.255 25.7484 42.1854 25.8184 42.0985 25.8709C42.0116 25.9234 41.9247 25.9672 41.8291 26.0022C41.7335 26.0372 41.6379 26.0634 41.5336 26.0809C41.4293 26.0984 41.3337 26.1072 41.2294 26.1072C41.0382 26.1072 40.8644 26.0722 40.708 26.0109C40.5515 25.9497 40.4125 25.8534 40.2908 25.7309C40.1778 25.6085 40.0822 25.451 40.0214 25.2672C39.9605 25.0835 39.9258 24.8735 39.9258 24.6373C39.9258 24.4448 39.9519 24.2611 40.0127 24.0948C40.0735 23.9286 40.1517 23.7799 40.2647 23.6574C40.3777 23.5349 40.5081 23.4387 40.6645 23.3687C40.8209 23.2987 41.0035 23.2637 41.2033 23.2637C41.3685 23.2637 41.5162 23.2899 41.664 23.3512C41.803 23.4037 41.9247 23.4824 42.029 23.5874C42.1333 23.6924 42.2115 23.8236 42.2723 23.9724C42.3332 24.1298 42.3592 24.3048 42.3592 24.4973C42.3592 24.5761 42.3592 24.6285 42.3332 24.646C42.3071 24.6635 42.2897 24.681 42.2376 24.681H40.4038C40.4038 24.856 40.4299 25.0048 40.4733 25.136C40.5168 25.2672 40.5776 25.3722 40.6471 25.4597C40.7253 25.5472 40.8123 25.6085 40.9165 25.6522C41.0208 25.6959 41.1425 25.7134 41.2642 25.7134C41.3859 25.7134 41.4901 25.6959 41.5771 25.6697C41.664 25.6435 41.7422 25.6085 41.803 25.5822C41.8639 25.5472 41.916 25.521 41.9595 25.4947C42.0029 25.4685 42.0377 25.451 42.0724 25.451C42.1159 25.451 42.142 25.4685 42.168 25.4947L42.3071 25.6697L42.3158 25.6784ZM41.9247 24.3836C41.9247 24.2698 41.9073 24.1648 41.8812 24.0773C41.8465 23.9811 41.803 23.9024 41.7422 23.8324C41.6813 23.7624 41.6118 23.7099 41.5249 23.6749C41.438 23.6399 41.3424 23.6224 41.2294 23.6224C40.9948 23.6224 40.8123 23.6924 40.6819 23.8236C40.5515 23.9549 40.4646 24.1473 40.4299 24.3836H41.9334H41.9247Z" fill="black"></path><path id="Vector_24" d="M46.4357 22.7655C46.4357 22.7655 46.4009 22.8092 46.3836 22.8267C46.3662 22.8442 46.3401 22.8442 46.314 22.8442C46.2793 22.8442 46.2445 22.8267 46.2097 22.8005C46.175 22.7742 46.1142 22.7392 46.0533 22.6955C45.9925 22.6517 45.9143 22.6255 45.8273 22.5905C45.7404 22.5555 45.6361 22.5468 45.5058 22.5468C45.3841 22.5468 45.2885 22.5643 45.1929 22.5905C45.0973 22.6167 45.0278 22.6692 44.9669 22.7217C44.9061 22.7742 44.8627 22.8442 44.8279 22.9142C44.7931 22.9842 44.7844 23.063 44.7844 23.1504C44.7844 23.2554 44.8105 23.3517 44.8627 23.4217C44.9148 23.4917 44.9843 23.5529 45.0712 23.6054C45.1581 23.6579 45.2537 23.7016 45.3667 23.7366C45.4797 23.7716 45.5927 23.8154 45.7057 23.8504C45.8187 23.8941 45.9316 23.9379 46.0446 23.9816C46.1576 24.0341 46.2532 24.0954 46.3401 24.1741C46.427 24.2528 46.4966 24.3403 46.5487 24.4541C46.6008 24.5678 46.6269 24.6991 46.6269 24.8653C46.6269 25.0403 46.6008 25.1978 46.54 25.3465C46.4792 25.4952 46.4009 25.6265 46.288 25.7402C46.175 25.8539 46.0446 25.9414 45.8795 26.0027C45.7144 26.0639 45.5319 26.0989 45.332 26.0989C45.0799 26.0989 44.854 26.0552 44.6454 25.9589C44.4368 25.8627 44.263 25.7402 44.1152 25.5827L44.263 25.329C44.263 25.329 44.2977 25.294 44.3151 25.2765C44.3325 25.259 44.3586 25.259 44.3847 25.259C44.4107 25.259 44.4368 25.2678 44.4629 25.2853C44.4889 25.3027 44.5237 25.329 44.5672 25.3552C44.6019 25.3815 44.6454 25.4165 44.6975 25.4515C44.7497 25.4865 44.8018 25.5215 44.8627 25.5477C44.9235 25.574 44.993 25.6002 45.0712 25.6177C45.1495 25.6352 45.2364 25.644 45.3407 25.644C45.4623 25.644 45.5753 25.6265 45.6709 25.5915C45.7665 25.5565 45.8534 25.504 45.9229 25.4427C45.9925 25.3815 46.0446 25.3027 46.0794 25.2153C46.1142 25.1278 46.1315 25.0315 46.1315 24.9265C46.1315 24.804 46.1055 24.7078 46.0533 24.6378C46.0012 24.5591 45.9316 24.4978 45.8447 24.4453C45.7578 24.3928 45.6622 24.3491 45.5492 24.3141C45.4363 24.2791 45.3233 24.2441 45.2103 24.2091C45.0973 24.1741 44.9843 24.1304 44.8713 24.0779C44.7584 24.0254 44.6628 23.9641 44.5759 23.8854C44.4889 23.8066 44.4194 23.7104 44.3673 23.5967C44.3151 23.4829 44.2891 23.3342 44.2891 23.1592C44.2891 23.0192 44.3151 22.888 44.3673 22.7567C44.4194 22.6255 44.4976 22.5118 44.6019 22.4155C44.7062 22.3193 44.8279 22.2318 44.9756 22.1793C45.1234 22.118 45.2972 22.0918 45.4884 22.0918C45.7057 22.0918 45.9056 22.1268 46.0794 22.1968C46.2532 22.2668 46.4096 22.363 46.5487 22.4943L46.4183 22.748L46.4357 22.7655Z" fill="black"></path><path id="Vector_25" d="M47.9905 26.1071C47.7732 26.1071 47.6081 26.0459 47.4864 25.9234C47.3734 25.8009 47.3126 25.6259 47.3126 25.3984V23.7098H46.9823C46.9823 23.7098 46.9302 23.7098 46.9128 23.6836C46.8954 23.6661 46.8867 23.6398 46.8867 23.6048V23.4124L47.3386 23.3511L47.4516 22.4937C47.4516 22.4937 47.469 22.4412 47.4864 22.4237C47.5038 22.4062 47.5298 22.3975 47.5646 22.3975H47.808V23.3511H48.5988V23.7011H47.808V25.3547C47.808 25.4684 47.834 25.5559 47.8949 25.6172C47.9557 25.6784 48.0252 25.7047 48.1121 25.7047C48.1643 25.7047 48.2077 25.7047 48.2425 25.6872C48.2773 25.6697 48.312 25.6609 48.3381 25.6434C48.3642 25.6259 48.3902 25.6084 48.4076 25.5997C48.425 25.5909 48.4424 25.5822 48.4598 25.5822C48.4858 25.5822 48.5032 25.5997 48.5293 25.6259L48.6684 25.8534C48.5814 25.9321 48.4859 25.9934 48.3642 26.0371C48.2425 26.0809 48.1295 26.1071 47.9992 26.1071H47.9905Z" fill="black"></path><path id="Vector_26" d="M49.0258 23.6923C49.1735 23.5436 49.3386 23.4386 49.5125 23.3599C49.6863 23.2899 49.8775 23.2549 50.0948 23.2549C50.2512 23.2549 50.3816 23.2811 50.5032 23.3336C50.6249 23.3861 50.7205 23.4561 50.8074 23.5436C50.8856 23.6311 50.9465 23.7448 50.9899 23.8761C51.0334 24.0073 51.0508 24.1473 51.0508 24.3048V26.0721H50.8335C50.79 26.0721 50.7466 26.0721 50.7292 26.0459C50.7118 26.0196 50.6857 26.0021 50.6684 25.9584L50.6162 25.6959C50.5467 25.7659 50.4772 25.8184 50.4076 25.8709C50.3381 25.9234 50.2686 25.9671 50.1904 26.0021C50.1121 26.0371 50.0339 26.0634 49.947 26.0809C49.8601 26.0984 49.7645 26.1071 49.6602 26.1071C49.5559 26.1071 49.4516 26.0896 49.356 26.0634C49.2604 26.0371 49.1822 25.9846 49.1127 25.9321C49.0432 25.8709 48.991 25.7921 48.9476 25.7047C48.9041 25.6172 48.8867 25.5034 48.8867 25.3809C48.8867 25.2759 48.9128 25.171 48.9736 25.066C49.0345 24.961 49.1301 24.8735 49.2604 24.7947C49.3908 24.716 49.5646 24.6548 49.7819 24.6023C49.9992 24.5498 50.2599 24.5235 50.5728 24.5148V24.296C50.5728 24.0861 50.5293 23.9198 50.4337 23.8061C50.3381 23.6923 50.2077 23.6398 50.0339 23.6398C49.9122 23.6398 49.8166 23.6573 49.7384 23.6836C49.6602 23.7098 49.5907 23.7448 49.5298 23.7886C49.469 23.8236 49.4169 23.8586 49.3821 23.8936C49.3386 23.9198 49.2952 23.9373 49.2604 23.9373C49.2257 23.9373 49.1996 23.9373 49.1735 23.9111C49.1474 23.8936 49.1301 23.8761 49.1127 23.8498L49.0258 23.6923ZM50.5815 24.821C50.3555 24.821 50.173 24.8472 50.0165 24.8735C49.8601 24.8997 49.7297 24.9347 49.6341 24.9872C49.5385 25.031 49.4603 25.0835 49.4169 25.1447C49.3734 25.206 49.3473 25.2759 49.3473 25.3547C49.3473 25.4334 49.356 25.4859 49.3821 25.5384C49.4082 25.5909 49.4342 25.6347 49.4777 25.6697C49.5212 25.7047 49.5646 25.7309 49.6254 25.7397C49.6863 25.7484 49.7384 25.7659 49.7993 25.7659C49.8862 25.7659 49.9644 25.7659 50.0339 25.7397C50.1034 25.7134 50.173 25.6959 50.2338 25.6609C50.2946 25.6259 50.3555 25.5909 50.4163 25.5472C50.4772 25.5034 50.5293 25.4509 50.5815 25.3897V24.821Z" fill="black"></path><path id="Vector_27" d="M52.2408 23.8498C52.3277 23.6573 52.432 23.5086 52.5624 23.4036C52.6927 23.2986 52.8405 23.2461 53.023 23.2461C53.0838 23.2461 53.136 23.2461 53.1881 23.2636C53.2403 23.2811 53.2924 23.2986 53.3272 23.3248L53.2924 23.6836C53.2837 23.7273 53.2576 23.7535 53.2142 23.7535C53.1881 23.7535 53.1533 23.7535 53.1012 23.736C53.049 23.7185 52.9969 23.7186 52.9361 23.7186C52.8492 23.7186 52.7709 23.7273 52.7014 23.7535C52.6319 23.7798 52.5711 23.8148 52.5189 23.8673C52.4668 23.9198 52.4146 23.981 52.3712 24.051C52.3277 24.121 52.2929 24.2085 52.2582 24.3047V26.0458H51.7715V23.2811H52.0496C52.1017 23.2811 52.1365 23.2898 52.1539 23.3073C52.1713 23.3248 52.1887 23.3598 52.1973 23.4123L52.2321 23.8323L52.2408 23.8498Z" fill="black"></path><path id="Vector_28" d="M55.3344 23.7535C55.3344 23.7535 55.2822 23.8148 55.2301 23.8148C55.204 23.8148 55.1692 23.806 55.1345 23.7885C55.0997 23.771 55.0563 23.7448 55.0128 23.7186C54.9694 23.6923 54.8998 23.6748 54.839 23.6486C54.7782 23.6223 54.6912 23.6136 54.5956 23.6136C54.5174 23.6136 54.4392 23.6223 54.3784 23.6486C54.3175 23.6748 54.2567 23.7011 54.2132 23.736C54.1698 23.771 54.135 23.8148 54.109 23.8585C54.0829 23.9023 54.0742 23.9548 54.0742 24.016C54.0742 24.086 54.0916 24.1473 54.135 24.191C54.1785 24.2348 54.2306 24.2785 54.3002 24.3135C54.3697 24.3485 54.4392 24.3747 54.5261 24.401C54.613 24.4272 54.6999 24.4535 54.7868 24.4885C54.8738 24.5147 54.9607 24.5497 55.0476 24.5847C55.1345 24.6197 55.204 24.6635 55.2735 24.7247C55.3431 24.7772 55.3952 24.8472 55.4387 24.9259C55.4821 25.0047 55.4995 25.1009 55.4995 25.2147C55.4995 25.3459 55.4734 25.4596 55.43 25.5646C55.3865 25.6696 55.317 25.7659 55.2301 25.8446C55.1432 25.9233 55.0302 25.9846 54.9085 26.0283C54.7868 26.0721 54.6304 26.0983 54.4653 26.0983C54.2741 26.0983 54.1003 26.0633 53.9438 26.0021C53.7874 25.9408 53.657 25.8621 53.5527 25.7571L53.6657 25.5734C53.6657 25.5734 53.7005 25.5296 53.7179 25.5209C53.7352 25.5121 53.7613 25.5034 53.7961 25.5034C53.8308 25.5034 53.8656 25.5121 53.9004 25.5384C53.9351 25.5646 53.9786 25.5909 54.0307 25.6259C54.0829 25.6609 54.1437 25.6871 54.2219 25.7134C54.3002 25.7396 54.3871 25.7484 54.5 25.7484C54.5956 25.7484 54.6739 25.7396 54.7434 25.7134C54.8129 25.6871 54.8738 25.6521 54.9172 25.6171C54.9607 25.5734 54.9954 25.5296 55.0215 25.4684C55.0476 25.4159 55.0563 25.3546 55.0563 25.2934C55.0563 25.2147 55.0389 25.1534 54.9954 25.1009C54.952 25.0484 54.8998 25.0047 54.8303 24.9697C54.7608 24.9347 54.6912 24.8997 54.6043 24.8734C54.5174 24.8472 54.4305 24.8209 54.3436 24.786C54.2567 24.7597 54.1698 24.7247 54.0829 24.6897C53.996 24.6547 53.9178 24.6022 53.8569 24.5497C53.7874 24.4972 53.7352 24.4272 53.6918 24.3397C53.6483 24.261 53.631 24.156 53.631 24.0423C53.631 23.9373 53.657 23.8323 53.6918 23.736C53.7352 23.6398 53.7961 23.5523 53.883 23.4823C53.9699 23.4123 54.0655 23.3511 54.1872 23.3073C54.3088 23.2636 54.4479 23.2461 54.6043 23.2461C54.7868 23.2461 54.9433 23.2723 55.091 23.3336C55.2388 23.3948 55.3604 23.4736 55.4647 23.5698L55.3604 23.7448L55.3344 23.7535Z" fill="black"></path></g></g></g></g></g></g></g></g></g><defs><clipPath id="clip0_0_1"><rect width="64" height="27" fill="white"></rect></clipPath></defs></svg> 