<?xml version="1.0" encoding="UTF-8"?> <svg xmlns="http://www.w3.org/2000/svg" width="119" height="30" viewBox="0 0 119 30" fill="none"><g id="Frame 427319649"><g id="Frame 427319586"><g id="Frame 427319586_2"><g id="Frame 427319584"><g id="Frame 427319587"><g id="Group 2112"><g id="Group 2111"><g id="Group 2106"><path id="Vector" d="M104.516 5.91602V11.2699C104.516 12.6158 104.009 13.259 102.94 13.259C101.871 13.259 101.356 12.6158 101.356 11.2699V5.91602H98.168V11.2699C98.168 14.4841 99.8057 16.1702 102.94 16.1702C106.074 16.1702 107.692 14.499 107.692 11.2699V5.91602H104.518H104.516Z" fill="#131718"></path><path id="Vector_2" d="M88.0144 12.2905C89.0573 11.5655 89.7135 10.491 89.7135 9.28636C89.7135 8.59668 89.4978 7.94603 89.1186 7.38462C89.1056 7.3716 89.0982 7.36417 89.0907 7.35115C89.0294 7.25635 88.9624 7.16154 88.8937 7.07417C88.8323 7.00724 88.7654 6.93846 88.6966 6.8641C88.1147 6.30269 87.241 5.93647 86.2595 5.92345H83.8372L80.8926 5.91602V15.7222H83.8372V12.521H85.0009L85.3058 13.246L86.3338 15.7222H89.7711L88.0106 12.2849V12.2923L88.0144 12.2905ZM85.4899 10.0857H83.8391V8.38661H85.4899C86.1386 8.38661 86.661 8.76585 86.661 9.23245C86.661 9.69906 86.1405 10.0857 85.4899 10.0857Z" fill="#131718"></path><path id="Vector_3" d="M39.6984 11.7234L42.3252 13.0099C41.4719 14.722 39.6928 15.9006 37.6424 15.9006C34.7591 15.9006 32.4316 13.5861 32.4316 10.7437C32.4316 7.90135 34.7665 5.58691 37.6424 5.58691C39.7059 5.58691 41.4923 6.77852 42.3456 8.5111L39.7189 9.8031C39.3805 8.95726 38.6091 8.36238 37.7019 8.36238C36.4898 8.36238 35.5083 9.4313 35.5083 10.7512C35.5083 12.0711 36.4898 13.1325 37.7019 13.1325C38.5886 13.1325 39.3527 12.5637 39.6984 11.7383V11.7253V11.7234Z" fill="#131718"></path><path id="Vector_4" d="M49.4427 5.57715C46.4441 5.57715 44.0293 7.89159 44.0293 10.734C44.0293 13.5764 46.4516 15.8908 49.4427 15.8908C52.4338 15.8908 54.856 13.5764 54.856 10.734C54.856 7.89159 52.4263 5.57715 49.4427 5.57715ZM49.4427 13.0689C48.1841 13.0689 47.1691 12.026 47.1691 10.734C47.1691 9.44199 48.1841 8.39166 49.4427 8.39166C50.7012 8.39166 51.7162 9.44013 51.7162 10.734C51.7162 12.0278 50.6938 13.0689 49.4427 13.0689Z" fill="#131718"></path><path id="Vector_5" d="M61.7337 5.7467H57.2461V15.7295H61.7337C64.7322 15.7295 67.1471 13.4894 67.1471 10.7344C67.1471 7.97934 64.7248 5.73926 61.7337 5.73926V5.7467ZM61.6798 12.941H60.306V8.52774H61.6798C62.9309 8.52774 63.9477 9.51672 63.9477 10.7344C63.9477 11.952 62.9327 12.941 61.6798 12.941Z" fill="#131718"></path><path id="Vector_6" d="M95.2474 5.91602H92.3027V15.7296H95.2474V5.91602Z" fill="#131718"></path><path id="Vector_7" d="M79.0392 15.7289H75.7971L73.5031 8.60893L71.2091 15.7289H67.9336L71.6627 5.74609H75.3026L79.0392 15.7289Z" fill="#131718"></path><path id="Vector_8" d="M118.795 12.8458C118.795 13.4407 118.605 13.9965 118.28 14.4631C117.813 15.1398 117.062 15.6343 116.181 15.8035H116.174C115.558 16.0191 114.882 16.1344 114.17 16.1344C112.465 16.1344 110.955 15.4577 110.035 14.4222L111.253 12.7101L111.537 12.2974H111.545C111.755 12.4796 111.991 12.6488 112.249 12.8049C112.351 12.8663 112.459 12.9276 112.575 12.9871C112.69 13.0484 112.798 13.0949 112.913 13.1488C113.279 13.305 113.638 13.4202 113.982 13.4797C114.056 13.4927 114.131 13.5076 114.205 13.5132C114.279 13.5188 114.361 13.5262 114.441 13.5262C115.097 13.5262 115.625 13.2418 115.625 12.8904C115.625 12.5391 115.097 12.2547 114.441 12.2547C114.069 12.2268 113.697 12.1673 113.324 12.0576C113.134 12.0111 112.937 11.9498 112.749 11.881C112.654 11.8475 112.56 11.8066 112.465 11.7657C112.288 11.6784 112.099 11.5836 111.896 11.4683C111.876 11.4609 111.85 11.4479 111.829 11.4348C111.801 11.4144 111.775 11.4014 111.747 11.3884C111.686 11.3475 111.632 11.314 111.586 11.2806C111.504 11.2266 111.424 11.1727 111.355 11.1244C111.322 11.0965 111.26 11.0426 111.186 10.9682C111.178 10.9682 111.173 10.9608 111.173 10.9552C111.065 10.853 110.929 10.7117 110.794 10.5295C110.719 10.4273 110.645 10.3139 110.578 10.1912C110.442 9.94766 110.327 9.66323 110.281 9.33791C110.247 9.14829 110.234 8.94566 110.26 8.72816C110.327 8.15931 110.585 7.73918 110.781 7.49565C110.801 7.45476 110.827 7.4213 110.855 7.39341C111.275 6.84501 112.032 6.36539 112.98 6.06051C113.723 5.9118 115.084 5.74263 116.642 6.25013C117.475 6.52154 118.118 6.89892 118.572 7.22424C118.166 7.74476 117.752 8.2597 117.347 8.78021C117.164 9.01073 116.98 9.24124 116.798 9.4699C116.657 9.34163 116.467 9.19849 116.237 9.0572C116.114 8.98284 115.98 8.90105 115.837 8.83413C115.376 8.61105 114.95 8.50323 114.625 8.44746C114.579 8.44002 114.53 8.43444 114.489 8.42701C114.415 8.41399 114.328 8.40656 114.238 8.40656C113.697 8.40656 113.257 8.64265 113.257 8.94195C113.257 9.21336 113.643 9.44201 114.144 9.46246C114.171 9.4699 114.205 9.4699 114.238 9.4699H114.279C114.482 9.47734 114.684 9.49778 114.895 9.52381C115.374 9.59073 115.828 9.69298 116.248 9.84169H116.255C116.391 9.88259 116.499 9.94394 116.627 9.99042H116.635C116.763 10.0369 116.891 10.0852 117.006 10.1466C117.135 10.2079 117.25 10.2693 117.373 10.3436C117.67 10.5407 117.934 10.7693 118.151 11.0482C118.408 11.3661 118.598 11.7323 118.7 12.1301C118.761 12.3606 118.795 12.5967 118.795 12.8402V12.8458Z" fill="#131718"></path></g><g id="Group 2107"><path id="Vector_9" d="M39.1806 22.9705V23.491H36.6152V19.6875H39.1528V20.2024H37.1766V21.3253H39.0375V21.8253H37.1766V22.976H39.1806V22.9686V22.9705Z" fill="#F17932"></path><path id="Vector_10" d="M39.7266 21.7793H41.1338V22.2794H39.7266V21.7793Z" fill="#F17932"></path><path id="Vector_11" d="M43.6593 20.1693C42.8749 20.1693 42.2986 20.7586 42.2986 21.584C42.2986 22.4093 42.8674 22.9986 43.6445 22.9986C44.2393 22.9986 44.626 22.7551 44.8491 22.2476L45.3901 22.4577C45.0796 23.1269 44.4699 23.5396 43.6445 23.5396C42.5421 23.5396 41.7148 22.7272 41.7148 21.584C41.7148 20.4407 42.5477 19.6357 43.6575 19.6357C44.4624 19.6357 45.0313 20.041 45.3566 20.6638L44.8156 20.8664C44.5795 20.3998 44.2003 20.1693 43.6575 20.1693H43.6593Z" fill="#F17932"></path><path id="Vector_12" d="M45.7051 21.584C45.7051 20.4611 46.5435 19.6357 47.6812 19.6357C48.8189 19.6357 49.6573 20.4407 49.6573 21.584C49.6573 22.7272 48.8245 23.5396 47.6812 23.5396C46.5379 23.5396 45.7051 22.7272 45.7051 21.584ZM49.0754 21.584C49.0754 20.7381 48.501 20.1693 47.6812 20.1693C46.8614 20.1693 46.2869 20.7586 46.2869 21.584C46.2869 22.4093 46.8558 22.9986 47.6812 22.9986C48.5066 22.9986 49.0754 22.4093 49.0754 21.584Z" fill="#F17932"></path><path id="Vector_13" d="M50.5371 19.6338H50.9777L52.4333 22.6379L53.8944 19.6338H54.335V23.4912H53.8405V20.8254L52.5485 23.4912H52.3329L51.0465 20.831V23.4912H50.552V19.6338H50.539H50.5371Z" fill="#F17932"></path><path id="Vector_14" d="M55.4785 19.6338H55.9191L57.3747 22.6379L58.8358 19.6338H59.2764V23.4912H58.7819V20.8254L57.4899 23.4912H57.2743L55.9879 20.831V23.4912H55.4934V19.6338H55.4804H55.4785Z" fill="#F17932"></path><path id="Vector_15" d="M93.2188 19.6338H93.6593L95.1149 22.6379L96.5761 19.6338H97.0167V23.4912H96.5222V20.8254L95.2302 23.4912H95.0145L93.7281 20.831V23.4912H93.2336V19.6338H93.2206H93.2188Z" fill="#F17932"></path><path id="Vector_16" d="M63.0205 22.9441V23.4646H60.4551V19.6611H62.9926V20.1761H61.0165V21.2989H62.8773V21.799H61.0165V22.9497H63.0205V22.9422V22.9441Z" fill="#F17932"></path><path id="Vector_17" d="M66.0342 23.4646L65.1605 22.1447H64.3481V23.4646H63.7793V19.6611H65.194C66.0882 19.6611 66.6421 20.1408 66.6421 20.9067C66.6421 21.4811 66.3038 21.9012 65.7424 22.0704L66.7369 23.4646H66.0324H66.0342ZM64.3481 21.6094H65.2014C65.7294 21.6094 66.0547 21.3454 66.0547 20.8992C66.0547 20.4531 65.7368 20.1816 65.2014 20.1816H64.3481V21.6094Z" fill="#F17932"></path><path id="Vector_18" d="M69.38 20.1898C68.5956 20.1898 68.0193 20.7791 68.0193 21.6045C68.0193 22.4299 68.5881 23.0192 69.3652 23.0192C69.9601 23.0192 70.3467 22.7756 70.5698 22.2681L71.1108 22.4782C70.8003 23.1474 70.1906 23.5601 69.3652 23.5601C68.2628 23.5601 67.4355 22.7477 67.4355 21.6045C67.4355 20.4612 68.2684 19.6562 69.3782 19.6562C70.1831 19.6562 70.752 20.0615 71.0773 20.6843L70.5363 20.8869C70.3002 20.4203 69.921 20.1898 69.3782 20.1898H69.38Z" fill="#F17932"></path><path id="Vector_19" d="M74.2119 22.991V23.5115H71.6465V19.708H74.184V20.2229H72.2079V21.3458H74.0687V21.8458H72.2079V22.9966H74.2119V22.9891V22.991Z" fill="#F17932"></path><path id="Vector_20" d="M79.2014 22.6117H77.3405L76.9743 23.5115H76.3516L77.9429 19.708H78.6121L80.2034 23.5115H79.5732L79.207 22.6117H79.1995H79.2014ZM78.9932 22.0987L78.3091 20.4144L78.2626 20.2583L78.2217 20.4144L77.5376 22.0987H78.9932Z" fill="#F17932"></path><path id="Vector_21" d="M80.791 21.9222V19.71H81.3654V21.9296C81.3654 22.6193 81.7707 23.0394 82.4083 23.0394C83.046 23.0394 83.4512 22.6267 83.4512 21.9296V19.71H84.0201V21.9222C84.0201 22.9297 83.4048 23.5674 82.4028 23.5674C81.4008 23.5674 80.7929 22.9316 80.7929 21.9222H80.791Z" fill="#F17932"></path><path id="Vector_22" d="M87.9394 20.2509H86.6604V23.5134H86.086V20.2509H84.8145V19.71H87.9487V20.2509H87.9413H87.9394Z" fill="#F17932"></path><path id="Vector_23" d="M88.3867 21.5556C88.3867 20.4328 89.2251 19.6074 90.3628 19.6074C91.5005 19.6074 92.3389 20.4124 92.3389 21.5556C92.3389 22.6989 91.5061 23.5113 90.3628 23.5113C89.2195 23.5113 88.3867 22.6989 88.3867 21.5556ZM91.7571 21.5556C91.7571 20.7098 91.1826 20.141 90.3628 20.141C89.543 20.141 88.9686 20.7303 88.9686 21.5556C88.9686 22.381 89.5374 22.9703 90.3628 22.9703C91.1882 22.9703 91.7571 22.381 91.7571 21.5556Z" fill="#F17932"></path><path id="Vector_24" d="M100.553 22.558H98.6921L98.3259 23.4578H97.7031L99.2944 19.6543H99.9637L101.555 23.4578H100.925L100.559 22.558H100.551H100.553ZM100.35 22.0431L99.6662 20.3589L99.6197 20.2027L99.5788 20.3589L98.8947 22.0431H100.35Z" fill="#F17932"></path><path id="Vector_25" d="M104.852 20.2509H103.573V23.5134H102.998V20.2509H101.727V19.71H104.861V20.2509H104.853H104.852Z" fill="#F17932"></path><path id="Vector_26" d="M105.555 19.708H106.137V23.5115H105.555V19.708Z" fill="#F17932"></path><path id="Vector_27" d="M107.018 21.6582C107.018 20.5353 107.856 19.71 108.994 19.71C110.131 19.71 110.97 20.5149 110.97 21.6582C110.97 22.8015 110.137 23.6138 108.994 23.6138C107.85 23.6138 107.018 22.8015 107.018 21.6582ZM110.388 21.6582C110.388 20.8123 109.813 20.2435 108.994 20.2435C108.174 20.2435 107.599 20.8328 107.599 21.6582C107.599 22.4836 108.168 23.0729 108.994 23.0729C109.819 23.0729 110.388 22.4836 110.388 21.6582Z" fill="#F17932"></path><path id="Vector_28" d="M111.852 19.708H112.352L114.558 22.5578V19.708H115.12V23.5115H114.62L112.413 20.6691V23.5115H111.852V19.708Z" fill="#F17932"></path></g></g><g id="Group 2105"><path id="Vector_29" d="M12.2079 23.1441V29.0959C10.9559 28.9164 9.76827 28.5679 8.64042 28.0937C6.8978 27.3473 5.33468 26.2808 4.02734 24.963L8.16027 20.8301C8.16027 20.8301 8.1827 20.8675 8.20963 20.8839C9.29858 21.9669 10.6717 22.7567 12.2064 23.1441H12.2079Z" fill="#131718"></path><path id="Vector_30" d="M24.989 4.2855L20.8561 8.41842C20.6826 8.23893 20.5016 8.07588 20.3116 7.91733C18.7754 6.63243 16.7994 5.84862 14.6485 5.84862C12.9597 5.84862 11.3861 6.32279 10.0474 7.13951C8.56651 8.04298 7.38482 9.38322 6.65486 10.9673C6.13731 12.0832 5.84413 13.3307 5.84413 14.6425C5.84413 15.3769 5.93687 16.0904 6.11039 16.777H0.158556C0.0553446 16.08 0 15.3665 0 14.6425C0 11.7077 0.866075 8.96888 2.36338 6.6758C3.29527 5.23833 4.47696 3.96988 5.84264 2.94076C7.76475 1.49282 10.0578 0.511567 12.5469 0.152573C13.2275 0.0493618 13.9305 0 14.644 0C18.6842 0 22.3384 1.63941 24.9845 4.27952L24.9905 4.2855H24.989Z" fill="#F17932"></path><path id="Vector_31" d="M19.9918 17.0348L23.842 20.8835H16.6218L16.3824 20.6397L12.5098 16.773L12.5262 16.7566L16.1251 13.1622L20.8639 8.41895L21.4457 9.00231L21.4682 9.02325L24.735 12.2856L23.4112 13.6139L20.27 16.7566L19.9918 17.0348Z" fill="#131718"></path></g></g></g></g></g></g></g></svg> 