<?xml version="1.0" encoding="UTF-8"?> <svg xmlns="http://www.w3.org/2000/svg" width="112" height="32" viewBox="0 0 112 32" fill="none"><g id="Frame 427319649"><g id="Frame 427319586"><g id="Frame 427319584"><g id="Frame 427319584_2"><g id="Frame 427319583"><g id="Frame 427319562"><g id="Frame 427319563"><g id="Group 2189"><path id="Vector" d="M7.9632 16.003C3.54387 16.003 0 12.3961 0 8.00151C0 3.60688 3.58801 0 7.98422 0C10.8282 0 13.4966 1.57446 14.8965 4.04487V8.24204H5.64266V7.14863L12.4677 5.8147V4.85258C11.1771 3.03759 9.44928 2.49141 7.98317 2.49141C4.89857 2.49141 2.58013 4.98388 2.58013 8.00046C2.58013 11.017 4.85548 13.5095 7.9611 13.5095C9.84234 13.5095 11.3295 12.7007 12.2701 11.3889H14.9385V11.9571C13.5165 14.4275 10.8481 16.002 7.96005 16.002L7.9632 16.003Z" fill="black"></path><path id="Vector_2" d="M30.5817 15.6537H27.8251L20.2339 4.63453H19.7525V15.6537H17.3027V0.328125H20.0594L27.6506 11.3252H28.1319V0.328125H30.5817V15.6537Z" fill="black"></path><path id="Vector_3" d="M40.7108 16.003C36.3135 16.003 32.7266 12.4172 32.7266 8.02357C32.7266 3.62999 36.3146 0 40.7108 0C45.107 0 48.695 3.62894 48.695 8.02357C48.695 12.4182 45.107 16.003 40.7108 16.003ZM40.7108 2.49246C37.6924 2.49246 35.3077 4.94081 35.3077 8.02357C35.3077 11.1063 37.6924 13.5106 40.7108 13.5106C43.7292 13.5106 46.1138 11.1053 46.1138 8.02357C46.1138 4.94186 43.7292 2.49246 40.7108 2.49246Z" fill="black"></path><path id="Vector_4" d="M64.2039 1.44302L58.6695 15.6531H54.5129L48.9785 1.44302V0.349609H51.4504L56.3069 13.2489H56.8976L61.71 0.349609H64.2039V1.44302Z" fill="black"></path><path id="Vector_5" d="M80.3038 0.349596V15.7193H77.7667V13.6637H77.2633C76.1261 15.172 74.3101 16.0029 71.9033 16.0029C67.8781 16.0029 64.5098 12.3519 64.5098 8.0234C64.5098 3.69494 67.8781 0.0439453 71.9033 0.0439453C74.3101 0.0439453 76.103 0.896824 77.2633 2.38306H77.7667V0.349596H80.3038ZM77.7667 8.0234C77.7667 4.89758 75.4693 2.38306 72.3416 2.38306C69.4535 2.38306 67.0909 4.89758 67.0909 8.0234C67.0909 11.1492 69.4756 13.6637 72.3416 13.6637C75.4693 13.6637 77.7667 11.1492 77.7667 8.0234Z" fill="black"></path><path id="Vector_6" d="M111.229 0.349609H84.2969V15.7193H111.229V0.349609Z" fill="#03D353"></path><path id="Vector_7" d="M89.9813 13.0641C87.8867 13.0641 86.8105 11.4518 86.8105 10.0506H88.2262C88.2546 10.9424 88.9482 11.6356 89.9677 11.6356C91.0722 11.6356 91.8079 10.9287 91.8079 9.83847C91.8079 8.81964 91.0291 8.06969 89.9393 8.06969H88.7075V6.8534L91.1143 4.44811V4.36303H87.0228V2.99023H93.0113V4.34833L90.5478 6.75361V6.83869C92.119 6.96578 93.3507 8.18313 93.3507 9.82377C93.3507 11.4644 92.119 13.063 89.9813 13.063V13.0641ZM97.9004 13.0777C96.0318 13.0777 94.5173 11.6913 94.5173 9.75339C94.5173 9.06017 94.7159 8.43731 95.027 7.90059L97.7585 2.99128H99.5L97.3202 6.61287L97.377 6.66959C97.5609 6.59921 97.8583 6.54249 98.1274 6.54249C99.7837 6.54249 101.313 7.7735 101.313 9.75444C101.313 11.7354 99.7701 13.0788 97.9014 13.0788L97.9004 13.0777ZM97.9004 11.6493C99.0186 11.6493 99.769 10.8142 99.769 9.75339C99.769 8.69255 99.0186 7.85752 97.9004 7.85752C96.7822 7.85752 96.0465 8.72091 96.0465 9.75339C96.0465 10.7859 96.7822 11.6493 97.9004 11.6493ZM105.744 13.0777C103.904 13.0777 102.587 11.8614 102.488 10.1777H103.904C104.031 11.0978 104.739 11.6629 105.715 11.6629C106.763 11.6629 107.569 10.8563 107.569 9.75339C107.569 8.65053 106.805 7.90059 105.63 7.90059C104.71 7.90059 104.229 8.45202 104.073 8.72091H102.657L103.011 2.99128H108.49V4.36408H104.328L104.144 7.13699H104.229C104.3 7.08027 104.866 6.5572 105.928 6.5572C107.782 6.5572 109.098 8.04238 109.098 9.75444C109.098 11.622 107.683 13.0788 105.744 13.0788V13.0777Z" fill="black"></path><path id="Exclude" d="M29.5527 21.1562C32.5489 21.1562 34.9785 23.5837 34.9785 26.5781C34.9785 29.5725 32.5489 32 29.5527 32H5.4248C2.4287 31.9999 2.73485e-05 29.5725 0 26.5781C0 23.5838 2.42869 21.1564 5.4248 21.1562H29.5527ZM25.0635 25.0801C24.0653 25.0803 23.3155 25.8167 23.3154 26.9277C23.3154 27.979 24.0243 28.7557 25.0762 28.7559L25.0771 28.7568C25.9421 28.7568 26.5644 28.2877 26.7451 27.6113H26.0625C25.9217 27.9526 25.538 28.1669 25.0967 28.167C24.4547 28.167 24.046 27.7526 24.0186 27.1436H26.7783V26.8818C26.7783 25.884 26.1554 25.0801 25.0635 25.0801ZM10.9053 25.0801C9.92792 25.0801 9.23737 25.8428 9.2373 26.9277C9.2373 28.0123 9.93242 28.7542 10.9375 28.7549C11.6326 28.7549 11.9754 28.3067 12.0693 28.1729H12.1094V28.668H12.7998V25.168H12.0967V25.6758H12.0498C11.9363 25.4951 11.5736 25.0801 10.9053 25.0801ZM21.2627 25.0801C20.7404 25.0801 20.3772 25.348 20.2363 25.6357H20.1904V25.168H19.5059V28.668L19.5078 28.6689H20.2119V26.6279C20.2119 26.1186 20.5729 25.7364 21.0615 25.7363C21.5029 25.7363 21.8446 26.0654 21.8447 26.5537V28.6689H22.5479V26.4199C22.5479 25.6637 22.0592 25.0802 21.2627 25.0801ZM5.62109 23.9814V28.668H6.34375V26.9209H7.34863C8.19992 26.9209 8.84961 26.3164 8.84961 25.4404C8.84953 24.5645 8.22614 23.9814 7.34863 23.9814H5.62109ZM15.4775 25.1611C14.9808 25.1613 14.6463 25.495 14.5391 25.7764H14.4922V25.168H13.8164V28.668H14.5195V26.9414C14.5196 26.2924 14.8611 25.8438 15.458 25.8438H15.7852V25.1611H15.4775ZM16.9912 24.1758V24.9463C16.991 25.0868 16.9039 25.1738 16.7832 25.1738H16.3213V25.7432H16.9502V27.5566C16.9502 28.2865 17.3643 28.6679 18.0547 28.668L18.0566 28.667H18.6406V28.0713H18.1641C17.7953 28.0712 17.6543 27.8711 17.6543 27.5361V25.7422H18.6729V25.166H17.6543V24.1758H16.9912ZM29.293 25.1611C28.796 25.1611 28.4618 25.4949 28.3545 25.7764H28.3076V25.168H27.6318V28.668H28.334V26.9414C28.334 26.2924 28.6765 25.8438 29.2734 25.8438H29.5996V25.1611H29.293ZM11.0322 25.7217C11.6491 25.7217 12.1182 26.1647 12.1182 26.9209C12.118 27.5834 11.7092 28.119 11.04 28.1191C10.398 28.1191 9.95426 27.6234 9.9541 26.9209C9.9541 26.2183 10.4154 25.7217 11.0322 25.7217ZM25.0635 25.6689C25.6058 25.6689 26.0347 26.0104 26.082 26.5996H24.0332C24.0857 26.0504 24.5213 25.6691 25.0635 25.6689ZM7.28223 24.6035C7.78453 24.6035 8.11907 24.9448 8.11914 25.4404C8.11914 25.9362 7.78459 26.2979 7.28223 26.2979H6.34375V24.6035H7.28223Z" fill="black"></path></g></g></g></g></g></g></g></g></svg> 