<?xml version="1.0" encoding="UTF-8"?> <svg xmlns="http://www.w3.org/2000/svg" width="125" height="28" viewBox="0 0 125 28" fill="none"><g id="Frame 427319649"><g id="Frame 427319586"><g id="Frame 427319585"><g id="Frame 427319584"><g id="Frame 427319587"><g id="ergonode"><path id="Vector" d="M41.796 14.7672H34.0404C34.4281 16.2343 35.4186 16.9829 37.0593 16.9829C38.1742 16.9829 39.5053 16.5464 40.4032 15.9378L41.4709 17.8258C40.1553 18.7776 38.669 19.2608 36.9512 19.2608C35.1245 19.2608 33.7462 18.731 32.7711 17.6693C31.796 16.6241 31.332 15.3136 31.332 13.7998C31.332 12.2083 31.8268 10.9133 32.8328 9.88373C33.8397 8.85317 35.1245 8.33887 36.7188 8.33887C38.2205 8.33887 39.4744 8.82206 40.4341 9.75831C41.4092 10.6946 41.8886 11.9585 41.8886 13.5811C41.8886 13.9408 41.8577 14.3462 41.796 14.7672ZM34.0404 12.7547H39.2882C39.0404 11.3965 38.0807 10.5701 36.7034 10.5701C35.3723 10.5701 34.3654 11.3965 34.0404 12.7547Z" fill="#33373E"></path><path id="Vector_2" d="M43.7324 19.0273V8.60414H46.2874V9.99248C46.9066 8.86859 47.8663 8.30762 49.1356 8.30762C49.5532 8.30762 49.9708 8.38539 50.3894 8.54095L50.157 11.1164C49.7239 10.9754 49.3053 10.9132 48.9186 10.9132C47.4014 10.9132 46.3954 11.9116 46.3954 14.0651V19.0118H43.7324V19.0273Z" fill="#33373E"></path><path id="Vector_3" d="M59.6295 8.60428H62.0909V17.9969C62.0909 19.6672 61.5653 20.9933 60.4966 21.9762C59.4289 22.9436 58.0506 23.4433 56.3637 23.4433C54.5986 23.4433 53.0043 22.9436 51.627 21.9296L52.6638 19.9015C53.856 20.7279 55.079 21.1178 56.2865 21.1178C58.3294 21.1178 59.5061 19.9171 59.5061 18.2312V17.7014C58.7161 18.6055 57.6484 19.043 56.3174 19.043C54.8002 19.043 53.5618 18.5433 52.6021 17.5293C51.627 16.5153 51.1621 15.2514 51.1621 13.7065C51.1621 12.1616 51.6733 10.8822 52.6793 9.86817C53.6853 8.85317 54.9391 8.33887 56.4409 8.33887C57.7101 8.33887 58.7788 8.82206 59.6295 9.75831V8.60428ZM54.6758 15.8444C55.2333 16.4054 55.9142 16.6864 56.7196 16.6864C57.5404 16.6864 58.2213 16.4054 58.7634 15.8444C59.3199 15.2669 59.5832 14.565 59.5832 13.7221C59.5832 12.8791 59.3199 12.1928 58.7634 11.6308C58.2059 11.0689 57.525 10.7889 56.7196 10.7889C55.8988 10.7889 55.2179 11.0689 54.6758 11.6308C54.1193 12.1928 53.856 12.8791 53.856 13.7221C53.856 14.5805 54.1347 15.298 54.6758 15.8444Z" fill="#33373E"></path><path id="Vector_4" d="M65.5285 9.9147C66.5663 8.83748 67.8973 8.30762 69.5071 8.30762C71.1168 8.30762 72.4479 8.83748 73.4857 9.9147C74.5225 10.9598 75.0491 12.2704 75.0491 13.7997C75.0491 15.3446 74.538 16.6551 73.4857 17.7012C72.4479 18.7464 71.1168 19.2928 69.5071 19.2928C67.8973 19.2928 66.5663 18.7619 65.5285 17.7012C64.4917 16.6551 63.9805 15.3446 63.9805 13.7997C63.9805 12.2704 64.4917 10.9754 65.5285 9.9147ZM69.5071 16.7805C70.3279 16.7805 70.9934 16.4996 71.5354 15.9221C72.092 15.329 72.3707 14.6271 72.3707 13.7997C72.3707 12.9723 72.092 12.2704 71.5354 11.6929C70.978 11.1164 70.3279 10.8354 69.5071 10.8354C68.6863 10.8354 68.0054 11.1164 67.4633 11.6929C66.9068 12.2704 66.6435 12.9723 66.6435 13.7997C66.6435 14.6271 66.9068 15.329 67.4633 15.9221C68.0208 16.4996 68.7017 16.7805 69.5071 16.7805Z" fill="#33373E"></path><path id="Vector_5" d="M76.9375 19.0273V8.60414H79.5532V10.0547C80.1107 9.04067 81.3337 8.30762 82.8046 8.30762C83.9186 8.30762 84.8937 8.69748 85.6682 9.43053C86.4417 10.1801 86.8449 11.2408 86.8449 12.6447V19.0118H84.1665V13.3632C84.1665 11.6929 83.2994 10.7887 81.9838 10.7887C80.5592 10.7887 79.615 11.8805 79.615 13.4254V19.0118H76.9375V19.0273Z" fill="#33373E"></path><path id="Vector_6" d="M90.126 9.9147C91.1628 8.83748 92.4948 8.30762 94.1046 8.30762C95.7143 8.30762 97.0453 8.83748 98.0831 9.9147C99.12 10.9598 99.6466 12.2704 99.6466 13.7997C99.6466 15.3446 99.1354 16.6551 98.0831 17.7012C97.0453 18.7464 95.7143 19.2928 94.1046 19.2928C92.4948 19.2928 91.1628 18.7619 90.126 17.7012C89.0891 16.6551 88.5625 15.3446 88.5625 13.7997C88.5779 12.2704 89.0891 10.9754 90.126 9.9147ZM94.12 16.7805C94.9408 16.7805 95.6063 16.4996 96.1474 15.9221C96.7049 15.329 96.9836 14.6271 96.9836 13.7997C96.9836 12.9723 96.7049 12.2704 96.1474 11.6929C95.5909 11.1164 94.9408 10.8354 94.12 10.8354C93.2992 10.8354 92.6182 11.1164 92.0762 11.6929C91.5197 12.2704 91.2564 12.9723 91.2564 13.7997C91.2564 14.6271 91.5197 15.329 92.0762 15.9221C92.6182 16.4996 93.2992 16.7805 94.12 16.7805Z" fill="#33373E"></path><path id="Vector_7" d="M109.258 4.48438H111.936V19.0123H109.321V17.7328C108.484 18.7469 107.417 19.2612 106.116 19.2612C104.661 19.2612 103.423 18.7469 102.448 17.7173C101.488 16.6712 100.992 15.3606 100.992 13.8002C100.992 12.2553 101.488 10.9448 102.448 9.89965C103.438 8.85354 104.646 8.32368 106.116 8.32368C107.37 8.32368 108.407 8.82243 109.258 9.78979V4.48438ZM108.592 11.6778C108.067 11.0848 107.385 10.8048 106.519 10.8048C105.652 10.8048 104.986 11.0848 104.429 11.6778C103.902 12.2553 103.639 12.9573 103.639 13.8002C103.639 14.6587 103.902 15.3606 104.429 15.9537C104.986 16.5312 105.667 16.8122 106.519 16.8122C107.37 16.8122 108.051 16.5312 108.592 15.9537C109.119 15.3606 109.382 14.6587 109.382 13.8002C109.382 12.9573 109.119 12.2553 108.592 11.6778Z" fill="#33373E"></path><path id="Vector_8" d="M124.305 14.7672H116.549C116.936 16.2343 117.926 16.9829 119.568 16.9829C120.682 16.9829 122.013 16.5464 122.911 15.9378L123.98 17.8258C122.663 18.7776 121.178 19.2608 119.459 19.2608C117.632 19.2608 116.255 18.731 115.28 17.6693C114.32 16.6241 113.84 15.3136 113.84 13.7998C113.84 12.2083 114.336 10.9133 115.342 9.88373C116.348 8.85317 117.632 8.33887 119.227 8.33887C120.728 8.33887 121.982 8.82206 122.942 9.75831C123.902 10.6946 124.397 11.9585 124.397 13.5811C124.397 13.9408 124.351 14.3462 124.305 14.7672ZM116.534 12.7547H121.797C121.549 11.3965 120.589 10.5701 119.211 10.5701C117.865 10.5701 116.859 11.3965 116.534 12.7547Z" fill="#33373E"></path><path id="Vector_9" d="M19.7545 18.8237V21.8201L12.0452 26.3137L4.33594 21.8201V18.8237L10.7605 22.5687V17.1855C11.1627 17.31 11.5958 17.3722 12.0452 17.3722C12.4937 17.3722 12.9278 17.31 13.33 17.1855V22.5687L19.7545 18.8237Z" fill="#00BC87"></path><path id="Vector_10" d="M4.32077 6.85648L8.94944 9.55634C8.31479 10.1484 7.86533 10.9291 7.66471 11.8031L3.03605 9.10328V16.5933L2.38597 16.219L0.451172 15.0951V6.10786L8.15951 1.61328L10.7299 3.11148L4.32077 6.85648Z" fill="#00BC87"></path><path id="Vector_11" d="M23.6088 6.10786V15.0951L21.0394 16.5933V9.10328L16.4107 11.8031C16.2091 10.9291 15.7452 10.1484 15.126 9.55634L19.7547 6.85648L13.3301 3.11148L15.8995 1.61328L23.6088 6.10786Z" fill="#00BC87"></path><path id="Vector_12" d="M13.9637 12.8478C13.9637 12.9888 13.9483 13.1132 13.9329 13.2532C13.8557 13.6596 13.6387 14.0339 13.3291 14.2993C12.9886 14.6114 12.5392 14.7981 12.0444 14.7981C11.5486 14.7981 11.1001 14.6114 10.7596 14.2993C10.45 14.0339 10.2485 13.6596 10.1559 13.2532C10.125 13.1288 10.125 12.9888 10.125 12.8478C10.125 11.9893 10.6815 11.2563 11.456 11.0064C11.6422 10.9442 11.8428 10.9131 12.0598 10.9131C12.2614 10.9131 12.4774 10.9442 12.6636 11.0064C13.4063 11.2407 13.9637 11.9738 13.9637 12.8478Z" fill="#00BC87"></path></g></g></g></g></g></g></svg> 