<?xml version="1.0" encoding="UTF-8"?> <svg xmlns="http://www.w3.org/2000/svg" width="169" height="80" viewBox="0 0 169 80" fill="none"><rect width="168.507" height="80" fill="black"></rect><path d="M47.84 60.5413L46.8906 68L44.4419 64.3476L33.1089 62.4251L31.23 62.1142L21.7948 60.4628L14.3919 47.6239L12 49.158L13.1765 45.5066L19.3083 46.6137L23.0481 51.1397L18.2642 12L31.7799 18.4098L36.1274 27.6361L38.9179 43.0979L28.9706 54.7329L42.2402 62.9103L47.84 60.5413Z" fill="url(#paint0_linear_1830_9011)"></path><path d="M63.3133 35.2206V32.1066H70.4671V38.492C69.108 39.4178 67.8861 40.0692 66.8403 40.4043C65.7961 40.7394 64.5352 40.9171 63.0967 40.9171C61.6582 40.9171 59.8643 40.621 58.7421 40.01C57.6184 39.3991 56.7519 38.492 56.1409 37.3106C55.53 36.109 55.2151 34.7297 55.2151 33.1914C55.2151 31.6531 55.5502 30.1366 56.2204 28.935C56.8906 27.7334 57.8756 26.806 59.177 26.1764C60.1822 25.6839 61.5615 25.447 63.2759 25.447C64.9903 25.447 66.1733 25.6044 66.9806 25.9005C67.8082 26.1966 68.4784 26.6689 69.0301 27.3001C69.5616 27.9313 69.9761 28.7386 70.252 29.7049L65.779 30.4935C65.6013 29.9216 65.2865 29.4883 64.8532 29.1921C64.4199 28.896 63.8479 28.7386 63.1777 28.7386C62.1725 28.7386 61.3449 29.094 60.7542 29.8031C60.1433 30.5122 59.8471 31.6157 59.8471 33.154C59.8471 34.6923 60.1433 35.9329 60.7542 36.6217C61.3652 37.3122 62.213 37.666 63.2962 37.666C64.3794 37.666 64.3015 37.5865 64.7737 37.4493C65.2459 37.2919 65.779 37.0348 66.3899 36.681V35.2627L63.3149 35.2237L63.3133 35.2206Z" fill="url(#paint1_linear_1830_9011)"></path><path d="M72.6351 33.1712C72.6351 30.7274 73.3255 28.8166 74.6846 27.456C76.0436 26.0969 77.9357 25.4065 80.3795 25.4065C82.8233 25.4065 84.7933 26.0767 86.1336 27.417C87.474 28.7574 88.1629 30.6292 88.1629 33.034C88.1629 35.4389 87.8668 36.2259 87.2761 37.3496C86.6854 38.4734 85.8375 39.3399 84.7138 39.9711C83.5901 40.6023 82.2108 40.8969 80.5556 40.8969C78.9004 40.8969 77.4619 40.621 76.3584 40.0896C75.255 39.5581 74.3479 38.69 73.659 37.5273C72.9889 36.3646 72.6335 34.9058 72.6335 33.1727L72.6351 33.1712ZM77.2671 33.1914C77.2671 34.7095 77.5429 35.7927 78.1149 36.4426C78.6869 37.1127 79.435 37.4276 80.4013 37.4276C81.3676 37.4276 82.1749 37.1127 82.7064 36.4613C83.2581 35.8114 83.5137 34.6487 83.5137 32.9732C83.5137 31.2978 83.2379 30.5294 82.6659 29.8795C82.0939 29.2296 81.3255 28.8945 80.3608 28.8945C79.3961 28.8945 78.6854 29.2296 78.1149 29.8795C77.5429 30.57 77.2671 31.6532 77.2671 33.1899V33.1914Z" fill="url(#paint2_linear_1830_9011)"></path><path d="M89.0492 25.6627H103.12V29.3673H98.3896V40.6403H93.7591V29.3673H89.029V25.6627H89.0492Z" fill="url(#paint3_linear_1830_9011)"></path><path d="M103.93 33.1712C103.93 30.7274 104.621 28.8166 105.98 27.456C107.339 26.0969 109.231 25.4065 111.675 25.4065C114.118 25.4065 116.088 26.0767 117.429 27.417C118.769 28.7574 119.458 30.6292 119.458 33.034C119.458 35.4389 119.162 36.2259 118.571 37.3496C117.981 38.4734 117.133 39.3399 116.009 39.9711C114.885 40.6023 113.506 40.8969 111.851 40.8969C110.196 40.8969 108.757 40.621 107.654 40.0896C106.55 39.5581 105.643 38.69 104.954 37.5273C104.265 36.3646 103.929 34.9058 103.929 33.1727L103.93 33.1712ZM108.561 33.1914C108.561 34.7095 108.837 35.7927 109.409 36.4426C109.981 37.1127 110.729 37.4276 111.695 37.4276C112.661 37.4276 113.469 37.1127 114 36.4613C114.552 35.8114 114.807 34.6487 114.807 32.9732C114.807 31.2978 114.532 30.5294 113.96 29.8795C113.388 29.2296 112.619 28.8945 111.654 28.8945C110.69 28.8945 109.979 29.2296 109.409 29.8795C108.837 30.57 108.561 31.6532 108.561 33.1899V33.1914Z" fill="url(#paint4_linear_1830_9011)"></path><path d="M121.884 25.6627H127.973L130.319 34.7864L132.644 25.6627H138.733V40.6403H134.949V29.2099L132.033 40.6403H128.604L125.688 29.2099V40.6403H121.904V25.6627H121.884Z" fill="url(#paint5_linear_1830_9011)"></path><path d="M150.891 38.1774H145.65L144.921 40.6414H140.19L145.826 25.6638H150.871L156.507 40.6414H151.658L150.89 38.1774H150.891ZM149.945 34.9247L148.29 29.5446L146.654 34.9247H149.945Z" fill="url(#paint6_linear_1830_9011)"></path><path d="M54.84 51.7555L56.358 51.5981C56.4562 52.1296 56.6339 52.5239 56.9097 52.7811C57.1856 53.0382 57.5596 53.1551 58.0334 53.1551C58.5072 53.1551 58.9203 53.0367 59.1759 52.82C59.4315 52.6034 59.5499 52.3275 59.5499 52.0314C59.5499 51.7353 59.4907 51.6761 59.3925 51.5389C59.2943 51.4002 59.0964 51.2833 58.8408 51.1836C58.6631 51.1243 58.2501 51.0059 57.5986 50.8282C56.771 50.6116 56.1803 50.3357 55.8452 50.0209C55.373 49.5673 55.1361 49.0156 55.1361 48.3844C55.1361 47.7532 55.2546 47.5771 55.4712 47.2217C55.6878 46.8664 56.0229 46.5905 56.4375 46.3941C56.8521 46.1978 57.3633 46.1183 57.9555 46.1183C58.9218 46.1183 59.6497 46.3349 60.1437 46.7885C60.6362 47.242 60.8918 47.8327 60.9121 48.5823L59.3551 48.6618C59.2959 48.2473 59.1385 47.9324 58.9218 47.7548C58.7052 47.5771 58.3701 47.4789 57.9368 47.4789C57.5035 47.4789 57.1295 47.5771 56.8723 47.775C56.7149 47.8935 56.6167 48.0711 56.6167 48.2878C56.6167 48.5044 56.6962 48.6431 56.8536 48.7803C57.05 48.958 57.5238 49.1356 58.2922 49.332C59.0605 49.5284 59.6122 49.7263 59.9676 49.9227C60.3229 50.1191 60.6175 50.3949 60.8154 50.7503C61.0134 51.1056 61.1303 51.5389 61.1303 52.0517C61.1303 52.5644 61.0118 52.9587 60.7562 53.3718C60.5193 53.7863 60.1655 54.0809 59.712 54.2788C59.2585 54.4752 58.7067 54.575 58.0366 54.575C57.0516 54.575 56.3019 54.3381 55.7907 53.8658C55.2592 53.3733 54.9428 52.6829 54.8447 51.7571L54.84 51.7555Z" fill="url(#paint7_linear_1830_9011)"></path><path d="M62.1099 50.3949C62.1099 49.5673 62.2283 48.8582 62.4652 48.3065C62.6429 47.8919 62.8798 47.5178 63.1743 47.1827C63.4705 46.8477 63.8056 46.6108 64.1796 46.4533C64.6518 46.2367 65.2238 46.1385 65.8348 46.1385C66.9772 46.1385 67.8843 46.5126 68.5545 47.2622C69.2449 48.0103 69.58 49.0359 69.58 50.3762C69.58 51.7166 69.2449 52.7218 68.5545 53.4699C67.8843 54.218 66.9772 54.5936 65.8348 54.5936C64.6924 54.5936 63.765 54.2196 63.0949 53.4902C62.4449 52.7016 62.1099 51.6776 62.1099 50.3965V50.3949ZM63.7058 50.3372C63.7058 51.263 63.9022 51.9535 64.3168 52.446C64.7111 52.9182 65.2238 53.1551 65.8535 53.1551C66.4831 53.1551 66.9772 52.9182 67.3902 52.446C67.7845 51.9737 67.9809 51.263 67.9809 50.317C67.9809 49.371 67.7845 48.6805 67.3902 48.2285C66.9959 47.775 66.4831 47.5381 65.8535 47.5381C65.2238 47.5381 64.6908 47.775 64.2965 48.2285C63.9022 48.6821 63.7058 49.3912 63.7058 50.3372Z" fill="url(#paint8_linear_1830_9011)"></path><path d="M70.8214 54.4159V46.2569H76.1034V47.6362H72.3784V49.5673H75.5906V50.9466H72.3784V54.4144H70.8214V54.4159Z" fill="url(#paint9_linear_1830_9011)"></path><path d="M79.1394 54.4159V47.6362H76.8531V46.2569H82.9813V47.6362H80.6949V54.4159H79.1379H79.1394Z" fill="url(#paint10_linear_1830_9011)"></path><path d="M85.0708 54.4159L83.238 46.2569H84.8339L85.9966 51.8537L87.4149 46.2569H89.268L90.627 51.9519L91.81 46.2569H93.3872L91.5154 54.4159H89.8602L88.3235 48.3064L86.7868 54.4159H85.0724H85.0708Z" fill="url(#paint11_linear_1830_9011)"></path><path d="M100.519 54.4159H98.8244L98.1542 52.5628H95.0605L94.4293 54.4159H92.7741L95.7899 46.2569H97.4451L100.52 54.4159H100.519ZM97.6414 51.1835L96.5769 48.149L95.5327 51.1835H97.6414Z" fill="url(#paint12_linear_1830_9011)"></path><path d="M101.346 54.4159V46.2569H104.618C105.445 46.2569 106.036 46.3364 106.411 46.4736C106.786 46.6123 107.082 46.8881 107.319 47.2622C107.535 47.6362 107.654 48.0695 107.654 48.5433C107.654 49.0171 107.476 49.667 107.141 50.0613C106.806 50.4557 106.293 50.7113 105.623 50.8094C105.958 51.0261 106.234 51.2427 106.45 51.4999C106.667 51.757 106.963 52.1903 107.337 52.82L108.283 54.4159H106.43L105.306 52.6423C104.912 52.0111 104.636 51.6168 104.479 51.4407C104.34 51.2832 104.183 51.1648 104.007 51.1056C103.849 51.0463 103.573 51.0074 103.218 51.0074H102.903V54.4175H101.346V54.4159ZM102.903 49.706H104.046C104.794 49.706 105.268 49.667 105.445 49.6078C105.623 49.5486 105.78 49.4301 105.878 49.2525C105.977 49.095 106.036 48.8784 106.036 48.6415C106.036 48.4046 105.956 48.149 105.819 47.9713C105.681 47.7937 105.484 47.6955 105.229 47.6565C105.11 47.6362 104.716 47.6362 104.086 47.6362H102.864L102.903 49.706Z" fill="url(#paint13_linear_1830_9011)"></path><path d="M109.133 54.4159V46.2569H114.848V47.6362H110.69V49.4488H114.572V50.8281H110.69V53.0553H115.005V54.4346H109.133V54.4144V54.4159Z" fill="url(#paint14_linear_1830_9011)"></path><path d="M119.321 54.4159V46.2569H120.878V49.4691H123.933V46.2569H125.49V54.4159H123.933V50.8484H120.878V54.4159H119.321Z" fill="url(#paint15_linear_1830_9011)"></path><path d="M126.79 50.3949C126.79 49.5673 126.908 48.8582 127.145 48.3065C127.323 47.8919 127.56 47.5178 127.854 47.1827C128.149 46.8477 128.486 46.6108 128.86 46.4533C129.332 46.2367 129.904 46.1385 130.515 46.1385C131.657 46.1385 132.564 46.5126 133.234 47.2622C133.925 48.0103 134.26 49.0359 134.26 50.3762C134.26 51.7166 133.925 52.7218 133.234 53.4699C132.564 54.218 131.657 54.5936 130.515 54.5936C129.372 54.5936 128.445 54.2196 127.775 53.4902C127.125 52.7016 126.79 51.6776 126.79 50.3965V50.3949ZM128.386 50.3372C128.386 51.263 128.582 51.9535 128.997 52.446C129.391 52.9182 129.904 53.1551 130.533 53.1551C131.163 53.1551 131.657 52.9182 132.07 52.446C132.465 51.9737 132.661 51.263 132.661 50.317C132.661 49.371 132.465 48.6805 132.07 48.2285C131.676 47.7766 131.163 47.5381 130.533 47.5381C129.904 47.5381 129.371 47.775 128.976 48.2285C128.582 48.6821 128.386 49.3912 128.386 50.3372Z" fill="url(#paint16_linear_1830_9011)"></path><path d="M135.481 46.2571H137.038V50.6709C137.038 51.3801 137.038 51.8336 137.098 52.03C137.157 52.3651 137.314 52.6409 137.57 52.8373C137.825 53.0337 138.16 53.1334 138.595 53.1334C139.03 53.1334 139.364 53.0353 139.601 52.8373C139.837 52.6394 139.956 52.404 140.015 52.1282C140.054 51.8523 140.074 51.3801 140.074 50.7489V46.2353H141.631V50.5322C141.631 51.5172 141.592 52.2077 141.513 52.602C141.433 53.0166 141.276 53.3501 141.041 53.6275C140.824 53.9034 140.509 54.12 140.134 54.2977C139.76 54.4551 139.267 54.5533 138.656 54.5533C138.045 54.5533 137.355 54.4551 136.981 54.2774C136.607 54.0997 136.29 53.8628 136.074 53.5683C135.857 53.2722 135.7 52.9776 135.64 52.6612C135.542 52.189 135.483 51.4985 135.483 50.5915V46.2556L135.481 46.2571Z" fill="url(#paint17_linear_1830_9011)"></path><path d="M142.872 51.7555L144.39 51.5981C144.489 52.1296 144.666 52.5239 144.942 52.7811C145.218 53.0367 145.592 53.1551 146.066 53.1551C146.54 53.1551 146.953 53.0367 147.208 52.82C147.464 52.6034 147.582 52.3275 147.582 52.0314C147.582 51.7353 147.523 51.6761 147.425 51.5389C147.327 51.4018 147.129 51.2833 146.873 51.1836C146.695 51.1243 146.282 51.0059 145.631 50.8282C144.803 50.6116 144.213 50.3357 143.878 50.0209C143.405 49.5673 143.168 49.0156 143.168 48.3844C143.168 47.7532 143.287 47.5771 143.504 47.2217C143.72 46.8664 144.055 46.5905 144.47 46.3941C144.884 46.1978 145.396 46.1183 145.988 46.1183C146.954 46.1183 147.682 46.3349 148.176 46.7885C148.669 47.242 148.924 47.8327 148.944 48.5823L147.387 48.6618C147.328 48.2473 147.171 47.9324 146.954 47.7548C146.738 47.5771 146.402 47.4789 145.969 47.4789C145.536 47.4789 145.162 47.5771 144.905 47.775C144.747 47.8935 144.649 48.0711 144.649 48.2878C144.649 48.5044 144.729 48.6431 144.886 48.7803C145.082 48.958 145.556 49.1356 146.325 49.332C147.073 49.5284 147.645 49.7263 148 49.9227C148.355 50.1191 148.65 50.3949 148.848 50.7503C149.044 51.1056 149.163 51.5389 149.163 52.0517C149.163 52.5644 149.044 52.9587 148.789 53.3718C148.552 53.7863 148.198 54.0809 147.744 54.2788C147.291 54.4752 146.739 54.575 146.069 54.575C145.103 54.575 144.334 54.3381 143.823 53.8658C143.292 53.3733 142.975 52.6829 142.877 51.7571L142.872 51.7555Z" fill="url(#paint18_linear_1830_9011)"></path><path d="M150.46 54.4159V46.2569H156.175V47.6362H152.017V49.4488H155.899V50.8281H152.017V53.0553H156.333V54.4346H150.46V54.4144V54.4159Z" fill="url(#paint19_linear_1830_9011)"></path><defs><linearGradient id="paint0_linear_1830_9011" x1="29.911" y1="12.1214" x2="29.911" y2="67.9593" gradientUnits="userSpaceOnUse"><stop stop-color="#AA7835"></stop><stop offset="0.33" stop-color="#F7F190"></stop><stop offset="0.66" stop-color="#F7F190"></stop><stop offset="1" stop-color="#EBBF3B"></stop></linearGradient><linearGradient id="paint1_linear_1830_9011" x1="62.8779" y1="25.4197" x2="62.8779" y2="40.9576" gradientUnits="userSpaceOnUse"><stop stop-color="#AA7835"></stop><stop offset="0.33" stop-color="#F7F190"></stop><stop offset="0.66" stop-color="#F7F190"></stop><stop offset="1" stop-color="#EBBF3B"></stop></linearGradient><linearGradient id="paint2_linear_1830_9011" x1="80.3692" y1="25.3912" x2="80.3692" y2="40.949" gradientUnits="userSpaceOnUse"><stop stop-color="#AA7835"></stop><stop offset="0.33" stop-color="#F7F190"></stop><stop offset="0.66" stop-color="#F7F190"></stop><stop offset="1" stop-color="#EBBF3B"></stop></linearGradient><linearGradient id="paint3_linear_1830_9011" x1="96.037" y1="25.6783" x2="96.037" y2="40.6029" gradientUnits="userSpaceOnUse"><stop stop-color="#AA7835"></stop><stop offset="0.33" stop-color="#F7F190"></stop><stop offset="0.66" stop-color="#F7F190"></stop><stop offset="1" stop-color="#EBBF3B"></stop></linearGradient><linearGradient id="paint4_linear_1830_9011" x1="111.75" y1="25.3912" x2="111.75" y2="40.949" gradientUnits="userSpaceOnUse"><stop stop-color="#AA7835"></stop><stop offset="0.33" stop-color="#F7F190"></stop><stop offset="0.66" stop-color="#F7F190"></stop><stop offset="1" stop-color="#EBBF3B"></stop></linearGradient><linearGradient id="paint5_linear_1830_9011" x1="130.313" y1="25.6783" x2="130.313" y2="40.6029" gradientUnits="userSpaceOnUse"><stop stop-color="#AA7835"></stop><stop offset="0.33" stop-color="#F7F190"></stop><stop offset="0.66" stop-color="#F7F190"></stop><stop offset="1" stop-color="#EBBF3B"></stop></linearGradient><linearGradient id="paint6_linear_1830_9011" x1="148.318" y1="25.6778" x2="148.318" y2="40.6025" gradientUnits="userSpaceOnUse"><stop stop-color="#AA7835"></stop><stop offset="0.33" stop-color="#F7F190"></stop><stop offset="0.66" stop-color="#F7F190"></stop><stop offset="1" stop-color="#EBBF3B"></stop></linearGradient><linearGradient id="paint7_linear_1830_9011" x1="57.9691" y1="46.1527" x2="57.9691" y2="54.5773" gradientUnits="userSpaceOnUse"><stop stop-color="#AA7835"></stop><stop offset="0.33" stop-color="#F7F190"></stop><stop offset="0.66" stop-color="#F7F190"></stop><stop offset="1" stop-color="#EBBF3B"></stop></linearGradient><linearGradient id="paint8_linear_1830_9011" x1="65.8184" y1="46.1621" x2="65.8184" y2="54.5866" gradientUnits="userSpaceOnUse"><stop stop-color="#AA7835"></stop><stop offset="0.33" stop-color="#F7F190"></stop><stop offset="0.66" stop-color="#F7F190"></stop><stop offset="1" stop-color="#EBBF3B"></stop></linearGradient><linearGradient id="paint9_linear_1830_9011" x1="73.476" y1="46.2784" x2="73.476" y2="54.4084" gradientUnits="userSpaceOnUse"><stop stop-color="#AA7835"></stop><stop offset="0.33" stop-color="#F7F190"></stop><stop offset="0.66" stop-color="#F7F190"></stop><stop offset="1" stop-color="#EBBF3B"></stop></linearGradient><linearGradient id="paint10_linear_1830_9011" x1="79.8994" y1="46.2722" x2="79.8994" y2="54.4022" gradientUnits="userSpaceOnUse"><stop stop-color="#AA7835"></stop><stop offset="0.33" stop-color="#F7F190"></stop><stop offset="0.66" stop-color="#F7F190"></stop><stop offset="1" stop-color="#EBBF3B"></stop></linearGradient><linearGradient id="paint11_linear_1830_9011" x1="88.3352" y1="46.2722" x2="88.3352" y2="54.4022" gradientUnits="userSpaceOnUse"><stop stop-color="#AA7835"></stop><stop offset="0.33" stop-color="#F7F190"></stop><stop offset="0.66" stop-color="#F7F190"></stop><stop offset="1" stop-color="#EBBF3B"></stop></linearGradient><linearGradient id="paint12_linear_1830_9011" x1="96.665" y1="46.2722" x2="96.665" y2="54.4022" gradientUnits="userSpaceOnUse"><stop stop-color="#AA7835"></stop><stop offset="0.33" stop-color="#F7F190"></stop><stop offset="0.66" stop-color="#F7F190"></stop><stop offset="1" stop-color="#EBBF3B"></stop></linearGradient><linearGradient id="paint13_linear_1830_9011" x1="104.82" y1="46.2784" x2="104.82" y2="54.4084" gradientUnits="userSpaceOnUse"><stop stop-color="#AA7835"></stop><stop offset="0.33" stop-color="#F7F190"></stop><stop offset="0.66" stop-color="#F7F190"></stop><stop offset="1" stop-color="#EBBF3B"></stop></linearGradient><linearGradient id="paint14_linear_1830_9011" x1="112.059" y1="46.2421" x2="112.059" y2="54.4564" gradientUnits="userSpaceOnUse"><stop stop-color="#AA7835"></stop><stop offset="0.33" stop-color="#F7F190"></stop><stop offset="0.66" stop-color="#F7F190"></stop><stop offset="1" stop-color="#EBBF3B"></stop></linearGradient><linearGradient id="paint15_linear_1830_9011" x1="122.442" y1="46.2722" x2="122.442" y2="54.4022" gradientUnits="userSpaceOnUse"><stop stop-color="#AA7835"></stop><stop offset="0.33" stop-color="#F7F190"></stop><stop offset="0.66" stop-color="#F7F190"></stop><stop offset="1" stop-color="#EBBF3B"></stop></linearGradient><linearGradient id="paint16_linear_1830_9011" x1="130.508" y1="46.1621" x2="130.508" y2="54.5866" gradientUnits="userSpaceOnUse"><stop stop-color="#AA7835"></stop><stop offset="0.33" stop-color="#F7F190"></stop><stop offset="0.66" stop-color="#F7F190"></stop><stop offset="1" stop-color="#EBBF3B"></stop></linearGradient><linearGradient id="paint17_linear_1830_9011" x1="138.556" y1="46.2225" x2="138.556" y2="54.5754" gradientUnits="userSpaceOnUse"><stop stop-color="#AA7835"></stop><stop offset="0.33" stop-color="#F7F190"></stop><stop offset="0.66" stop-color="#F7F190"></stop><stop offset="1" stop-color="#EBBF3B"></stop></linearGradient><linearGradient id="paint18_linear_1830_9011" x1="146.045" y1="46.1527" x2="146.045" y2="54.5773" gradientUnits="userSpaceOnUse"><stop stop-color="#AA7835"></stop><stop offset="0.33" stop-color="#F7F190"></stop><stop offset="0.66" stop-color="#F7F190"></stop><stop offset="1" stop-color="#EBBF3B"></stop></linearGradient><linearGradient id="paint19_linear_1830_9011" x1="153.404" y1="46.2421" x2="153.404" y2="54.4564" gradientUnits="userSpaceOnUse"><stop stop-color="#AA7835"></stop><stop offset="0.33" stop-color="#F7F190"></stop><stop offset="0.66" stop-color="#F7F190"></stop><stop offset="1" stop-color="#EBBF3B"></stop></linearGradient></defs></svg> 