<?xml version="1.0" encoding="UTF-8"?> <svg xmlns="http://www.w3.org/2000/svg" width="127" height="27" viewBox="0 0 127 27" fill="none"><g id="Frame 427319649"><g id="Frame 427319586"><g id="Frame 427319583"><g id="Frame 427319584"><g id="Frame 427319583_2"><g id="karpatiabs-logo-2 1" clip-path="url(#clip0_0_1)"><g id="Warstwa-1"><path id="Vector" fill-rule="evenodd" clip-rule="evenodd" d="M0.200736 14.7144C0.317513 14.6753 0.259939 14.7726 0.295775 14.3594C0.782318 8.75212 4.9677 4.91845 9.67333 2.31601C11.7076 1.19099 12.6201 0.897921 14.6299 0.0042269C14.5365 -0.0375922 11.5983 0.243747 11.2425 0.282086C7.51315 0.683942 4.07084 1.27822 0.48209 2.43035C0.27707 2.49631 0.315884 2.66426 0.263702 3.14397C0.233258 3.42301 0.205454 3.70227 0.180852 3.98198C-0.098818 7.16495 -0.000970179 11.2196 0.121199 14.517C0.129119 14.7291 0.159114 14.6954 0.200736 14.7144Z" fill="#225E45"></path><path id="Vector_2" fill-rule="evenodd" clip-rule="evenodd" d="M3.45117 21.6131C3.70113 21.8809 5.27203 22.8597 5.67949 23.1113C8.07187 24.5897 9.08433 25.1986 11.633 26.3996C12.6591 26.883 12.4896 26.8023 12.8327 26.5458C14.2491 25.4865 15.6089 24.4029 16.9832 23.2849C18.0549 22.4132 19.9815 20.7984 20.9717 19.8928C21.6072 19.3114 22.3334 18.7393 22.9391 18.1405C23.2092 17.8734 23.2501 17.967 23.215 17.8416C23.2003 17.7885 23.1848 17.7951 23.1607 17.7909C23.1188 17.7834 23.0626 17.829 23.0275 17.8533C22.8443 17.9799 22.6672 18.1181 22.4799 18.2385C22.1085 18.4778 21.7422 18.7238 21.3621 18.9507C16.1655 22.0537 10.882 23.1453 4.94787 21.9531C4.45055 21.8533 3.94036 21.7007 3.45117 21.6131Z" fill="#245E45"></path><path id="Vector_3" fill-rule="evenodd" clip-rule="evenodd" d="M12.4902 2.61332L12.493 2.67692C12.849 2.68466 14.4642 2.95315 14.8854 3.03549C17.0311 3.45481 19.0413 4.12588 20.8357 5.39915C22.5027 6.58192 23.6957 8.23291 24.4069 10.1363C24.5347 10.4787 24.6529 10.8361 24.7509 11.1881C24.8181 11.4288 24.948 12.1421 25.0517 12.2845C25.1579 11.9943 25.3728 8.29797 25.3983 7.72844C25.4493 6.57771 25.5139 4.00749 25.3775 2.93794C24.3376 2.69937 20.0828 2.45918 19.079 2.43975C17.3637 2.40607 15.8043 2.42269 14.0979 2.51974C13.6399 2.54596 12.9145 2.64088 12.4902 2.61332Z" fill="#205D44"></path><path id="Vector_4" fill-rule="evenodd" clip-rule="evenodd" d="M10.6777 18.6569C10.8828 18.6678 11.0407 18.4847 11.1961 18.3717L12.6439 17.3078C13.2718 16.83 13.9316 16.3807 14.5551 15.901C15.1741 15.4245 15.8304 14.9518 16.4637 14.4918C16.7927 14.2527 18.1329 13.1986 18.3783 13.1011C18.4659 13.2183 18.7989 14.5629 18.8712 14.8293C19.084 15.6121 18.8436 15.3439 20.0979 15.8685C20.3155 15.9594 23.1465 17.146 23.3082 17.1794L18.3819 12.4775L10.6777 18.6569Z" fill="#245E45"></path><path id="Vector_5" fill-rule="evenodd" clip-rule="evenodd" d="M5.92969 18.6704C6.16936 18.6522 7.56052 17.4989 7.86946 17.28C8.51378 16.8239 9.13328 16.297 9.77547 15.8369C10.3854 15.4002 13.2678 13.1221 13.6034 12.972C13.764 13.1874 14.1322 15.1561 14.2917 15.4098L15.553 14.3873C15.4802 14.2556 13.7324 12.5557 13.6044 12.4785C12.5079 13.4187 10.9513 14.6052 9.77451 15.5572C9.51754 15.7651 6.04978 18.5128 5.92969 18.6704Z" fill="#205D44"></path><path id="Vector_6" fill-rule="evenodd" clip-rule="evenodd" d="M1.03125 18.6693C1.25688 18.6574 1.80617 18.162 2.0154 18.0018C2.33018 17.7604 2.65175 17.5227 2.96844 17.2805C3.3974 16.9528 8.48032 13.0747 8.70152 12.9627C8.81077 13.1283 9.27934 15.0571 9.37578 15.4166L10.6534 14.3882C10.6021 14.2869 8.81757 12.5398 8.70433 12.4785C8.43235 12.7362 5.25803 15.2527 4.87585 15.5593C4.61067 15.7719 1.17027 18.4974 1.03125 18.6693Z" fill="#205D44"></path><path id="Vector_7" fill-rule="evenodd" clip-rule="evenodd" d="M12.4933 2.67694L12.4904 2.61328L12.3301 2.62243L12.4933 2.67694Z" fill="#8EADA1"></path><path id="Vector_8" d="M32.7148 16.3711V3.09375H35.1474V9.13692H35.1872L40.2018 3.09375H43.2207L37.6798 9.67277L43.6773 16.3711H40.5594L35.1872 10.3772H35.1474V16.3711H32.7148Z" fill="#205D44"></path><path id="Vector_9" d="M51.156 6.28912C50.6917 7.67791 50.277 8.83846 49.913 9.77123L49.4588 10.9531H52.8931L52.4388 9.77123C52.0788 8.83055 51.6644 7.66977 51.1958 6.28912H51.156ZM53.6778 12.9874H48.6743L47.3728 16.3711H44.7812L50.0539 3.09375H52.2782L57.551 16.3711H54.9791L53.6778 12.9874Z" fill="#205D44"></path><path id="Vector_10" d="M63.5817 9.19659C64.1378 9.19659 64.6094 9.17178 64.9967 9.12222C65.384 9.07237 65.7098 8.99799 65.9747 8.89864C66.4646 8.71385 66.804 8.4608 66.9926 8.13966C67.1812 7.81875 67.2755 7.45012 67.2755 7.03334C67.2755 6.67599 67.2011 6.36024 67.052 6.08564C66.9032 5.81104 66.65 5.59448 66.2926 5.43568C66.0606 5.32998 65.7695 5.25184 65.4187 5.2025C65.0678 5.15288 64.6341 5.12812 64.1179 5.12812H62.3801V9.19659H63.5817ZM69.7779 7.08273C69.7779 8.00938 69.5214 8.79451 69.0084 9.43982C68.4954 10.0847 67.7024 10.5627 66.6301 10.8736V10.9133L70.5821 16.3711H67.6629L64.0483 11.231H62.3801V16.3711H59.9473V3.09375H63.9889C64.6573 3.09375 65.2796 3.13186 65.8556 3.20787C66.4316 3.28393 66.9245 3.39805 67.335 3.55006C68.1162 3.84807 68.7186 4.28938 69.1423 4.8748C69.5658 5.46049 69.7779 6.1965 69.7779 7.08273Z" fill="#205D44"></path><path id="Vector_11" d="M75.6572 9.13692C75.7965 9.15657 75.9734 9.17156 76.1887 9.1816C76.4036 9.19165 76.6269 9.19631 76.8588 9.19631C77.5141 9.19631 78.0636 9.14349 78.5072 9.03773C78.9507 8.93181 79.308 8.78469 79.5798 8.59619C79.851 8.40764 80.0464 8.1794 80.1656 7.91109C80.2847 7.64333 80.3444 7.35071 80.3444 7.03311C80.3444 6.64276 80.2547 6.30546 80.0762 6.02081C79.8976 5.73666 79.5863 5.51471 79.1426 5.35614C78.9109 5.2766 78.6246 5.21884 78.2839 5.18257C77.9427 5.14609 77.5242 5.12784 77.0275 5.12784H75.6572V9.13692ZM76.8986 11.2307C76.68 11.2307 76.4649 11.2274 76.2531 11.2206C76.0413 11.2143 75.8426 11.201 75.6572 11.1813V16.3711H73.2246V3.09375H77.0575C77.6995 3.09375 78.2605 3.12182 78.7405 3.17795C79.2205 3.23431 79.6493 3.31851 80.0266 3.431C80.9335 3.70886 81.6318 4.15208 82.1219 4.7609C82.6115 5.36944 82.8563 6.1434 82.8563 7.08268C82.8563 7.72445 82.7241 8.30194 82.4594 8.81438C82.1947 9.32704 81.8071 9.76208 81.2976 10.1195C80.7879 10.4764 80.1656 10.751 79.4309 10.9428C78.696 11.135 77.8518 11.2307 76.8986 11.2307Z" fill="#205D44"></path><path id="Vector_12" d="M89.4431 6.28912C88.9788 7.67791 88.5641 8.83846 88.2001 9.77123L87.7461 10.9531H91.1804L90.7259 9.77123C90.3662 8.83055 89.9515 7.66977 89.483 6.28912H89.4431ZM91.9649 12.9874H86.9616L85.6599 16.3711H83.0684L88.3413 3.09375H90.5653L95.8381 16.3711H93.2664L91.9649 12.9874Z" fill="#205D44"></path><path id="Vector_13" d="M102.572 16.3711H100.14V5.12784H95.8496V3.09375H106.852V5.12784H102.572V16.3711Z" fill="#205D44"></path><path id="Vector_14" d="M111.679 3.09375H109.246V16.3711H111.679V3.09375Z" fill="#205D44"></path><path id="Vector_15" d="M120.449 6.28912C119.985 7.67791 119.57 8.83846 119.206 9.77123L118.752 10.9531H122.186L121.732 9.77123C121.372 8.83055 120.958 7.66977 120.489 6.28912H120.449ZM122.971 12.9874H117.968L116.666 16.3711H114.074L119.347 3.09375H121.571L126.844 16.3711H124.272L122.971 12.9874Z" fill="#205D44"></path><path id="Vector_16" d="M33.1529 26.1306H34.7119C34.9796 26.1306 35.1676 26.1205 35.2757 26.1004C35.4664 26.0665 35.626 26.0096 35.7543 25.9297C35.8824 25.8502 35.9877 25.7341 36.0702 25.5821C36.1529 25.4298 36.1943 25.2542 36.1943 25.0549C36.1943 24.8215 36.1344 24.6187 36.0148 24.4466C35.8952 24.2742 35.7293 24.1535 35.5172 24.0836C35.3049 24.0139 34.9995 23.9793 34.601 23.9793H33.1529V26.1306ZM33.1529 23.2407H34.5071C34.8743 23.2407 35.1376 23.2164 35.2972 23.1682C35.5079 23.1055 35.6665 23.0016 35.7733 22.8564C35.8802 22.7114 35.9336 22.5294 35.9336 22.31C35.9336 22.1026 35.8838 21.9195 35.7841 21.7616C35.6844 21.6035 35.542 21.4954 35.3569 21.4372C35.1718 21.3787 34.8542 21.3497 34.4044 21.3497H33.1529V23.2407ZM32.3242 26.869V20.6113H34.6735C35.1519 20.6113 35.5357 20.6747 35.8245 20.801C36.1135 20.9278 36.3401 21.1228 36.5037 21.3857C36.6676 21.6491 36.7494 21.9246 36.7494 22.2118C36.7494 22.4794 36.6767 22.7312 36.5316 22.9672C36.3862 23.2037 36.1669 23.3941 35.8739 23.5393C36.2523 23.6504 36.5438 23.8394 36.7474 24.107C36.951 24.3748 37.0525 24.6903 37.0525 25.0549C37.0525 25.348 36.9908 25.6202 36.867 25.8721C36.7432 26.124 36.5898 26.3182 36.4078 26.455C36.2254 26.5913 35.997 26.6947 35.7223 26.7644C35.4473 26.8341 35.1105 26.869 34.7119 26.869H32.3242Z" fill="#205D44"></path><path id="Vector_17" d="M39.5314 24.2993H41.6541L41.0007 22.5664C40.8015 22.0399 40.6532 21.6075 40.5565 21.2685C40.4767 21.6699 40.3644 22.0684 40.219 22.4639L39.5314 24.2993ZM37.7246 26.869L40.1294 20.6113H41.0222L43.585 26.869H42.6409L41.9104 24.9738H39.2922L38.6046 26.869H37.7246Z" fill="#205D44"></path><path id="Vector_18" d="M44.457 26.869V20.6113H45.307L48.5961 25.5241V20.6113H49.3906V26.869H48.5406L45.2516 21.9515V26.869H44.457Z" fill="#205D44"></path><path id="Vector_19" d="M50.9668 26.869V20.6113H51.7955V23.7143L54.905 20.6113H56.0284L53.4015 23.1469L56.1435 26.869H55.0501L52.8206 23.7019L51.7955 24.7006V26.869H50.9668Z" fill="#205D44"></path><path id="Vector_20" d="M59.4219 24.8578L60.2034 24.7894C60.2405 25.1026 60.3267 25.3594 60.462 25.5601C60.5972 25.7608 60.8072 25.9227 61.092 26.0466C61.3766 26.1705 61.697 26.2323 62.053 26.2323C62.3692 26.2323 62.6482 26.1853 62.8901 26.0915C63.1321 25.9975 63.3124 25.8688 63.4305 25.7051C63.5485 25.5414 63.6077 25.363 63.6077 25.1695C63.6077 24.9733 63.5509 24.8018 63.4368 24.6552C63.3231 24.5086 63.1349 24.3855 62.8733 24.2859C62.705 24.2206 62.3334 24.1187 61.7583 23.9807C61.183 23.8424 60.78 23.7126 60.5495 23.59C60.2506 23.4338 60.0276 23.2395 59.8808 23.0074C59.7343 22.7757 59.6611 22.5158 59.6611 22.2284C59.6611 21.9124 59.7507 21.6175 59.9302 21.3426C60.1095 21.068 60.3714 20.8597 60.7161 20.7174C61.0606 20.575 61.4435 20.5039 61.865 20.5039C62.3292 20.5039 62.7385 20.5788 63.0931 20.728C63.4476 20.8774 63.7203 21.0971 63.911 21.3876C64.1018 21.6776 64.2043 22.0064 64.2186 22.3736L63.4242 22.4335C63.3814 22.038 63.2368 21.7391 62.9906 21.537C62.7443 21.3347 62.3804 21.2339 61.8992 21.2339C61.3979 21.2339 61.0328 21.3258 60.8037 21.5092C60.5743 21.6927 60.4598 21.914 60.4598 22.1727C60.4598 22.3979 60.5411 22.583 60.7033 22.7277C60.8626 22.8729 61.2792 23.0217 61.9525 23.174C62.6261 23.326 63.0881 23.4593 63.3388 23.5732C63.7032 23.7409 63.9721 23.9538 64.146 24.2113C64.3197 24.4688 64.4065 24.7656 64.4065 25.1012C64.4065 25.434 64.311 25.7477 64.1205 26.0424C63.9295 26.3371 63.6554 26.5661 63.2981 26.7296C62.9407 26.8933 62.5386 26.9751 62.0913 26.9751C61.5248 26.9751 61.0499 26.8926 60.667 26.7274C60.2839 26.5626 59.9836 26.3142 59.7657 25.9825C59.5478 25.6511 59.4331 25.2762 59.4219 24.8578Z" fill="#205D44"></path><path id="Vector_21" d="M66.5866 23.5864H68.2054C68.7407 23.5864 69.1208 23.4867 69.3459 23.2875C69.5708 23.0887 69.6834 22.8083 69.6834 22.4467C69.6834 22.185 69.6172 21.9609 69.4847 21.7742C69.3522 21.588 69.1779 21.4651 68.9614 21.4054C68.8219 21.3682 68.5642 21.3497 68.1883 21.3497H66.5866V23.5864ZM65.7578 26.869V20.6113H68.12C68.5357 20.6113 68.8533 20.631 69.0726 20.6712C69.3801 20.7222 69.6377 20.8195 69.8456 20.9636C70.0534 21.1072 70.2208 21.3086 70.3476 21.5672C70.4742 21.8264 70.5376 22.111 70.5376 22.4212C70.5376 22.9535 70.3682 23.4037 70.0293 23.7721C69.6904 24.1407 69.0782 24.325 68.1926 24.325H66.5866V26.869H65.7578Z" fill="#205D44"></path><path id="Vector_22" d="M74.0275 20.2267L74.5955 19.0312H75.6038L74.6639 20.2267H74.0275ZM72.4129 23.8337C72.4129 24.588 72.6158 25.1816 73.0216 25.6157C73.4274 26.0498 73.9365 26.2668 74.5485 26.2668C75.1722 26.2668 75.6854 26.0477 76.0885 25.6091C76.4915 25.1711 76.693 24.5494 76.693 23.7441C76.693 23.2347 76.6066 22.7901 76.4344 22.41C76.2621 22.0299 76.0101 21.7357 75.6784 21.5264C75.3466 21.3173 74.9742 21.2127 74.5616 21.2127C73.9749 21.2127 73.47 21.4139 73.0473 21.8166C72.6242 22.2196 72.4129 22.8916 72.4129 23.8337ZM71.5586 23.8208C71.5586 22.7823 71.8376 21.9689 72.3958 21.3811C72.954 20.7936 73.6743 20.4999 74.5572 20.4999C75.1352 20.4999 75.6564 20.6381 76.1205 20.9138C76.5846 21.1898 76.9385 21.575 77.1819 22.0686C77.4253 22.5623 77.547 23.1222 77.547 23.7483C77.547 24.3829 77.419 24.9505 77.1627 25.4515C76.9065 25.9525 76.5434 26.3314 76.0735 26.5889C75.6038 26.8467 75.0968 26.9753 74.553 26.9753C73.9634 26.9753 73.4366 26.8331 72.9724 26.5484C72.5084 26.2638 72.1566 25.8753 71.9174 25.3832C71.6782 24.8909 71.5586 24.37 71.5586 23.8208Z" fill="#205D44"></path><path id="Vector_23" d="M78.7797 24.4574L78.1602 24.9822V24.2696L78.7797 23.7401V20.6113H79.6084V23.0361L81.0265 21.8364V22.5493L79.6084 23.7487V26.1306H82.7181V26.869H78.7797V24.4574Z" fill="#205D44"></path><path id="Vector_24" d="M84.7467 26.1306H86.0835C86.4966 26.1306 86.8205 26.092 87.0555 26.015C87.29 25.9386 87.4775 25.83 87.617 25.6906C87.8133 25.4944 87.9664 25.2306 88.0762 24.8989C88.1859 24.5675 88.2405 24.1654 88.2405 23.693C88.2405 23.0384 88.1331 22.5355 87.9182 22.184C87.7031 21.8327 87.442 21.5974 87.1344 21.4776C86.912 21.3923 86.5549 21.3497 86.0623 21.3497H84.7467V26.1306ZM83.918 26.869V20.6113H86.0749C86.5619 20.6113 86.9333 20.641 87.1899 20.7009C87.5487 20.7832 87.8548 20.9327 88.1082 21.149C88.4387 21.4278 88.6856 21.7842 88.8492 22.2184C89.013 22.6522 89.095 23.148 89.095 23.7059C89.095 24.1811 89.0393 24.6024 88.9283 24.9696C88.8172 25.3366 88.6749 25.6403 88.5012 25.8808C88.3273 26.1212 88.1373 26.3105 87.9309 26.4484C87.7244 26.5867 87.4752 26.691 87.1836 26.7623C86.8915 26.8334 86.5561 26.869 86.1774 26.869H83.918Z" fill="#205D44"></path><path id="Vector_25" d="M89.9551 26.869V26.1007L93.1631 22.0926C93.3906 21.8079 93.6073 21.5602 93.8123 21.3497H90.3181V20.6113H94.8033V21.3497L91.2877 25.6909L90.9079 26.1306H94.9056V26.869H89.9551Z" fill="#205D44"></path><path id="Vector_26" d="M96.9867 20.6113H96.1582V26.869H96.9867V20.6113Z" fill="#205D44"></path><path id="Vector_27" d="M98.6816 26.869V20.6113H103.209V21.3497H99.5104V23.2662H102.974V24.0006H99.5104V26.1306H103.355V26.869H98.6816Z" fill="#205D44"></path><path id="Vector_28" d="M104.686 26.869V20.6113H105.514V26.1306H108.598V26.869H104.686Z" fill="#205D44"></path><path id="Vector_29" d="M114.271 24.6744L115.1 24.8837C114.927 25.5639 114.614 26.0821 114.163 26.4395C113.711 26.7966 113.16 26.9751 112.507 26.9751C111.833 26.9751 111.284 26.8381 110.861 26.563C110.438 26.2884 110.116 25.8911 109.895 25.37C109.675 24.8493 109.564 24.2901 109.564 23.6925C109.564 23.0409 109.689 22.4725 109.938 21.9872C110.187 21.5019 110.542 21.1336 111.002 20.8816C111.462 20.6298 111.968 20.5039 112.52 20.5039C113.146 20.5039 113.674 20.6634 114.101 20.982C114.528 21.3008 114.825 21.7487 114.994 22.3266L114.178 22.5189C114.032 22.0635 113.822 21.732 113.545 21.5239C113.269 21.3164 112.922 21.2126 112.503 21.2126C112.022 21.2126 111.62 21.3277 111.296 21.5583C110.973 21.7889 110.746 22.0983 110.615 22.4868C110.484 22.8753 110.419 23.2757 110.419 23.6883C110.419 24.2206 110.496 24.6851 110.651 25.0818C110.807 25.4789 111.048 25.7755 111.375 25.972C111.703 26.1682 112.057 26.2665 112.439 26.2665C112.903 26.2665 113.296 26.1329 113.618 25.8651C113.94 25.5978 114.158 25.2008 114.271 24.6744Z" fill="#205D44"></path><path id="Vector_30" d="M115.84 26.869V26.1007L119.048 22.0926C119.276 21.8079 119.492 21.5602 119.697 21.3497H116.203V20.6113H120.688V21.3497L117.172 25.6909L116.792 26.1306H120.79V26.869H115.84Z" fill="#205D44"></path><path id="Vector_31" d="M123.665 26.869V24.2183L121.252 20.6113H122.26L123.494 22.4981C123.722 22.8508 123.934 23.2037 124.131 23.5567C124.319 23.2293 124.547 22.8606 124.814 22.4509L126.027 20.6113H126.993L124.494 24.2183V26.869H123.665Z" fill="#205D44"></path></g></g></g></g></g></g></g><defs><clipPath id="clip0_0_1"><rect width="127" height="27" fill="white"></rect></clipPath></defs></svg> 