<?xml version="1.0" encoding="UTF-8"?> <svg xmlns="http://www.w3.org/2000/svg" width="84" height="25" viewBox="0 0 84 25" fill="none"><g id="Frame 427319649"><g id="Frame 427319586"><g id="Frame 427319591"><g id="Frame 427319584"><g id="Frame 427319604"><g id="656ee4f5c93fb19f595a35e2_netige_logo_fullcolor_rgb 1" clip-path="url(#clip0_0_1)"><path id="Vector" d="M12.4692 11.2044C12.4476 10.0749 12.2625 5.17898 10.6176 0.157261C10.5807 0.0375451 10.4479 -0.0299752 10.3276 0.0130028L8.1273 0.740438C8.01007 0.783454 7.94219 0.912349 7.98227 1.03206C9.4697 5.58721 9.66106 10.1639 9.68878 11.2137C9.69187 11.3364 9.78755 11.4316 9.90787 11.4346H12.2347C12.3642 11.4346 12.4754 11.3333 12.4692 11.2044Z" fill="#99E83C"></path><path id="Vector_2" d="M5.6518 1.75018L3.53182 2.6864C3.41768 2.73856 3.36517 2.87056 3.41768 2.99028C5.26923 7.20164 6.13631 11.4314 6.54676 14.4549C6.55294 14.5071 6.52514 14.5531 6.48505 14.5746L6.23508 14.6943C6.195 14.7158 6.14249 14.7036 6.10549 14.6729L2.0352 10.618C1.9457 10.5321 1.79442 10.5321 1.70808 10.618L0.0694441 12.254C-0.023148 12.34 -0.023148 12.4843 0.0694441 12.5794L7.31515 19.7866C7.58049 20.0507 7.94159 20.1918 8.29953 20.1918C8.48163 20.1918 8.66372 20.1611 8.83339 20.0875C9.35489 19.8757 9.69128 19.3692 9.69128 18.8106C9.69128 18.4637 9.6512 10.2619 5.96039 1.86994C5.90795 1.75326 5.76601 1.69803 5.6518 1.75018Z" fill="#99E83C"></path><path id="Vector_3" d="M13.6287 11.4345H15.9463C16.0728 11.4345 16.1746 11.3332 16.1746 11.2074V1.52611C16.1746 1.39722 16.0728 1.2959 15.9463 1.2959H13.6287C13.5022 1.2959 13.4004 1.39722 13.4004 1.52611V11.2074C13.4004 11.3332 13.5022 11.4345 13.6287 11.4345Z" fill="#99E83C"></path><path id="Vector_4" d="M19.6527 4.98242H17.3352C17.2118 4.98242 17.1069 5.08374 17.1069 5.21571V10.5168C17.1069 14.2493 14.1104 17.3065 10.3827 17.4232C10.2592 17.4293 10.1543 17.5275 10.1543 17.6565V19.9586C10.1543 20.0875 10.2654 20.1949 10.395 20.1919C15.6441 20.0629 19.8842 15.7748 19.8842 10.5168V5.21571C19.8842 5.08374 19.7793 4.98242 19.6527 4.98242Z" fill="#99E83C"></path><g id="Group"><path id="Vector_5" d="M72.1376 9.76097H69.6844C69.5581 9.76097 69.4559 9.86306 69.4559 9.98828V11.0767C69.4559 11.1026 69.4395 11.1257 69.4149 11.1339L69.2753 11.1816C69.2507 11.1897 69.2242 11.1816 69.2087 11.1607C68.4105 10.089 67.2514 9.47559 65.9473 9.47559C63.2319 9.47559 61.084 11.8299 61.084 14.9946C61.084 18.0825 63.2319 20.357 65.9473 20.357C67.718 20.357 68.9031 19.3888 69.3921 18.896C69.4103 18.8774 69.4377 18.8729 69.4614 18.8838C69.5184 18.9106 69.5367 18.9187 69.5964 18.946C69.6197 18.9564 69.6338 18.9804 69.632 19.0058C69.4947 20.9545 68.3092 22.3647 65.8702 22.3647H65.5368C65.4109 22.3647 65.3087 22.4663 65.3087 22.5916V24.7712C65.3087 24.8964 65.4109 24.9981 65.5368 24.9981H65.8702C69.9527 25.0688 72.289 22.3769 72.289 18.6166V9.91479C72.289 9.82858 72.221 9.76097 72.1376 9.76097ZM69.4559 16.152C68.9469 17.1098 67.901 17.8802 66.6384 17.8802C65.1514 17.8802 63.9444 16.6801 63.9444 14.9946C63.9444 13.2941 65.1514 12.0726 66.6384 12.0726C67.901 12.0726 68.9683 12.883 69.4559 13.819V16.152Z" fill="#313D5E"></path><path id="Vector_6" d="M37.2945 5.2V19.9643C37.2945 20.0873 37.1896 20.1916 37.06 20.1916H32.9899C32.9 20.1916 32.817 20.1394 32.7828 20.0628L27.8515 9.68179C27.8365 9.64187 27.7963 9.61419 27.7498 9.61419H27.1263C27.0587 9.61419 27.0063 9.66636 27.0063 9.72761V19.9643C27.0063 20.0873 26.9073 20.1916 26.7778 20.1916H24.2813C24.1518 20.1916 24.0469 20.0873 24.0469 19.9643V5.2C24.0469 5.06797 24.1518 4.9668 24.2813 4.9668H28.2684C28.3578 4.9668 28.4408 5.01897 28.4782 5.09564L33.4898 15.4798C33.5049 15.5166 33.545 15.5415 33.5915 15.5415H34.2178C34.2826 15.5415 34.335 15.4889 34.335 15.4276V5.2C34.335 5.06797 34.44 4.9668 34.5636 4.9668H37.06C37.1896 4.9668 37.2945 5.06797 37.2945 5.2Z" fill="#313D5E"></path><path id="Vector_7" d="M55.9389 9.98859V11.8243C55.9389 11.9495 55.8367 12.0512 55.7108 12.0512H54.3885C54.3638 12.0512 54.3397 12.0612 54.3223 12.0789C54.2516 12.1492 54.2033 12.1991 54.1312 12.2694C54.113 12.2871 54.1029 12.3111 54.1029 12.3361V19.9644C54.1029 20.0873 54.0012 20.1917 53.8744 20.1917H51.4149C51.2854 20.1917 51.1869 20.0873 51.1869 19.9644V12.0512H49.6004C49.4709 12.0512 49.3691 11.9468 49.3691 11.8243V9.98859C49.3691 9.86291 49.4709 9.76128 49.6004 9.76128H50.9004C50.9255 9.76128 50.9497 9.7513 50.9674 9.73361C51.0382 9.66146 51.0883 9.61337 51.159 9.54304C51.1768 9.5258 51.1869 9.50221 51.1869 9.47725V7.06032C51.1869 6.93509 51.289 6.83301 51.4149 6.83301H53.8744C54.0012 6.83301 54.1029 6.93736 54.1029 7.06667V9.76128H55.7108C55.8367 9.76128 55.9389 9.86337 55.9389 9.98859Z" fill="#313D5E"></path><path id="Vector_8" d="M75.9162 15.3952C75.934 15.373 75.9613 15.3598 75.9901 15.3598H83.7581C83.894 15.3598 84.0053 15.2527 83.9989 15.1234C83.9004 12.2228 82.0271 9.47559 78.5923 9.47559C75.4943 9.47559 73.1055 11.8916 73.1055 14.9147C73.1055 18.1225 75.4509 20.4954 78.6325 20.4954C81.0395 20.4954 83.1318 19.0957 83.7859 16.8335C83.8261 16.6892 83.7088 16.5385 83.5578 16.5385H81.4035C81.3205 16.5385 81.2493 16.588 81.206 16.6647C80.7435 17.5426 79.7094 18.0612 78.6325 18.0612C77.1354 18.0612 76.0225 17.1856 75.71 15.7051C75.7041 15.6774 75.7118 15.6479 75.7296 15.6257C75.8026 15.5377 75.8455 15.4837 75.9162 15.3952ZM78.6142 11.8086C79.9658 11.8086 80.879 12.5359 81.206 13.7364H75.8213C76.204 12.5359 77.2654 11.8086 78.6142 11.8086Z" fill="#313D5E"></path><path id="Vector_9" d="M60.2637 9.98805V19.9639C60.2637 20.0868 60.162 20.1912 60.0357 20.1912H57.5762C57.4526 20.1912 57.3477 20.0868 57.3477 19.9639V9.98805C57.3477 9.86237 57.4526 9.76074 57.5762 9.76074H60.0357C60.162 9.76074 60.2637 9.86237 60.2637 9.98805Z" fill="#313D5E"></path><path id="Vector_10" d="M43.9603 9.47559C40.8622 9.47559 38.4707 11.8916 38.4707 14.9147C38.4707 18.1225 40.8221 20.4954 44.0036 20.4954C46.4107 20.4954 48.4998 19.0957 49.1539 16.8335C49.1972 16.6892 49.0768 16.5385 48.9258 16.5385H46.7747C46.6917 16.5385 46.6173 16.588 46.5772 16.6647C46.1142 17.5426 45.0806 18.0612 44.0036 18.0612C42.5034 18.0612 41.3904 17.1856 41.078 15.7051C41.0721 15.6774 41.0798 15.6479 41.0976 15.6257C41.1706 15.5377 41.2135 15.4837 41.2842 15.3952C41.3019 15.373 41.3293 15.3598 41.3581 15.3598H49.1293C49.2588 15.3598 49.3733 15.2527 49.3669 15.1234C49.2684 12.2228 47.3982 9.47559 43.9603 9.47559ZM41.1861 13.7364C41.5752 12.5359 42.6366 11.8086 43.9822 11.8086C45.3274 11.8086 46.2501 12.5359 46.5772 13.7364H41.1861Z" fill="#313D5E"></path><path id="Vector_11" d="M60.0355 4.9668H57.5761C57.4526 4.9668 57.3477 5.06811 57.3477 5.20008V7.72321C57.3477 7.84604 57.4526 7.95039 57.5761 7.95039H60.0355C60.162 7.95039 60.2639 7.84604 60.2639 7.72321V5.20008C60.2639 5.06811 60.162 4.9668 60.0355 4.9668Z" fill="#313D5E"></path></g></g></g></g></g></g></g><defs><clipPath id="clip0_0_1"><rect width="84" height="25" fill="white"></rect></clipPath></defs></svg> 