<?xml version="1.0" encoding="UTF-8"?> <svg xmlns="http://www.w3.org/2000/svg" width="126" height="13" viewBox="0 0 126 13" fill="none"><g id="Frame 427319649"><g id="Frame 427319586"><g id="Frame 427319590"><g id="Frame 427319584"><g id="Frame 427319587"><g id="675e0f8afefbb8ca641dabb7_logo 1" clip-path="url(#clip0_0_1)"><g id="g10"><g id="g12"><path id="path14" d="M119.628 7.93372L117.733 3.12241H116.947L113.843 7.93372H119.628ZM121.491 12.8722L120.64 10.7375H112.045L110.672 12.8722H106.162L114.66 0.191166H120.804L126.002 12.8722H121.491ZM94.1004 0.191166H109.854L109.463 3.40907H103.677L102.5 12.8408H98.3489L99.526 3.40907H93.741L94.1004 0.191166ZM88.1844 7.93372L86.2891 3.12241H85.5041L82.3993 7.93372H88.1844ZM90.0798 12.8722L89.2305 10.7375H80.6344L79.2614 12.8722H74.7507L83.2486 0.191166H89.3938L94.5586 12.8722H90.0798ZM61.8726 9.62259H67.3972C68.4097 9.62259 69.1622 9.5902 69.6523 9.52716C70.1419 9.46307 70.5016 9.3356 70.6985 9.17643C70.9272 8.98522 71.1225 8.69857 71.2541 8.31614C71.3845 7.93372 71.5149 7.32873 71.6131 6.56353C71.7114 5.79903 71.7442 5.19369 71.7114 4.77922C71.6792 4.39679 71.5806 4.07806 71.4173 3.85515C71.2208 3.63224 70.9272 3.47309 70.5349 3.40907C70.1419 3.34531 69.3254 3.31357 68.1154 3.31357H62.6247L61.8726 9.62259ZM57.5585 12.8722L59.1601 0.191166H68.5412C70.2079 0.191166 71.2862 0.191167 71.8092 0.222819C72.3319 0.254918 72.8554 0.318313 73.4109 0.414074C74.6858 0.668634 75.4374 1.40182 75.6661 2.58083C75.7647 3.02665 75.7969 3.50483 75.7969 4.01475C75.7969 4.52427 75.6986 5.28877 75.5682 6.34062C75.4374 7.4879 75.2741 8.31614 75.1431 8.92148C75.0126 9.49512 74.8157 10.0371 74.6204 10.5149C74.0969 11.6302 73.2151 12.3306 71.9729 12.5862C71.3845 12.713 70.7635 12.7767 70.1419 12.8408C69.4887 12.8722 68.4423 12.9049 66.9721 12.9049L57.5585 12.8722ZM53.1793 0.191166H57.3298L55.7285 12.8722H51.5776L53.1793 0.191166ZM36.5094 0.191166H52.2636L51.8717 3.40907H46.0862L44.8768 12.8722H40.7263L41.9025 3.44072H36.1175L36.5094 0.191166ZM23.6644 6.59557H28.6325C29.5478 6.59557 30.1034 6.56353 30.2992 6.56353C30.4953 6.53183 30.6911 6.49979 30.8547 6.40435C31.0841 6.30892 31.2145 6.14906 31.3449 5.92615C31.4431 5.70325 31.5415 5.38455 31.5747 4.93873C31.6397 4.49257 31.6397 4.14219 31.5415 3.951C31.4764 3.72774 31.3128 3.60023 31.0841 3.50483C30.9198 3.44072 30.2338 3.40907 29.0244 3.37733H24.0564L23.6644 6.59557ZM18.892 12.8722L20.4937 0.191166H29.4163C31.1813 0.191166 32.3257 0.222819 32.8158 0.286571C34.0906 0.445727 34.9077 0.859891 35.2671 1.49723C35.6269 2.13466 35.7252 3.28192 35.5286 4.93873C35.3333 6.49979 35.0063 7.61503 34.5479 8.22071C34.2543 8.63484 33.862 8.98522 33.3714 9.20848C32.8812 9.43138 32.2274 9.5902 31.4431 9.68598C30.8547 9.75007 29.8086 9.78176 28.273 9.78176H23.3043L22.9124 12.8722H18.892ZM9.6098 3.28192C7.51797 3.28192 6.24356 3.34532 5.78517 3.44072C5.29498 3.56822 4.93591 3.85515 4.70725 4.26931C4.51075 4.71548 4.31497 5.54407 4.15169 6.85052C4.05344 7.61503 4.02021 8.18902 4.05344 8.53905C4.11846 9.17643 4.57577 9.55885 5.36001 9.65429C5.9488 9.71837 7.09281 9.75007 8.79274 9.75007C10.3941 9.75007 11.4398 9.71837 11.9957 9.65429C12.5181 9.5902 12.9433 9.46307 13.2048 9.27221C13.4666 9.11269 13.6303 8.85774 13.7603 8.50701C13.8907 8.15663 13.989 7.61503 14.0876 6.85052C14.2176 5.92615 14.2509 5.25708 14.2509 4.84295C14.2509 4.42918 14.1526 4.1105 14.0223 3.88689C13.8589 3.60023 13.5317 3.44072 13.0415 3.37733C12.6164 3.31357 11.4724 3.28192 9.6098 3.28192ZM10.0339 -0.000445366C12.8457 -0.000445366 14.7743 0.0633059 15.7872 0.191166C17.2903 0.382332 18.1078 1.08316 18.3042 2.29417C18.4347 3.12241 18.3696 4.52427 18.141 6.49979C17.8791 8.47531 17.5854 9.87755 17.2584 10.7058C16.7679 11.9165 15.754 12.6176 14.1859 12.8084C13.1069 12.9359 11.1783 13 8.40045 13C5.55651 13 3.62828 12.9359 2.58216 12.8084C1.07909 12.6176 0.261635 11.9165 0.0651308 10.7058C-0.0652761 9.87755 0.000105936 8.44362 0.261635 6.40435C0.490293 4.46088 0.785048 3.09067 1.14411 2.26207C1.63466 1.05141 2.64754 0.350679 4.21672 0.159425C5.26283 0.0633068 7.22322 -0.000445366 10.0339 -0.000445366Z" fill="#4B99B4"></path></g></g></g></g></g></g></g></g><defs><clipPath id="clip0_0_1"><rect width="126" height="13" fill="white"></rect></clipPath></defs></svg> 