<?xml version="1.0" encoding="UTF-8"?> <svg xmlns="http://www.w3.org/2000/svg" width="112" height="28" viewBox="0 0 112 28" fill="none"><g id="Frame 427319649"><g id="Frame 427319586"><g id="Frame 427319589"><g id="Frame 427319584"><g id="Frame 427319583"><g id="raynetNewLogo 1" clip-path="url(#clip0_0_1)"><g id="Clip path group"><mask id="mask0_0_1" style="mask-type:luminance" maskUnits="userSpaceOnUse" x="0" y="0" width="112" height="28"><g id="clip0_16078_55451"><path id="Vector" d="M112 0H0V28H112V0Z" fill="white"></path></g></mask><g mask="url(#mask0_0_1)"><g id="Group"><path id="Vector_2" d="M21.1521 0H5.63137C2.52125 0 0 2.53929 0 5.67165V21.3034C0 24.4359 2.52125 26.9751 5.63137 26.9751H21.1521C24.2623 26.9751 26.7835 24.4359 26.7835 21.3034V5.67165C26.7835 2.53929 24.2623 0 21.1521 0Z" fill="#D4EDF1"></path><path id="Vector_3" d="M2.74522 13.2754C3.64532 14.8508 4.89579 16.1959 6.38771 17.2067C6.39741 17.1991 6.40712 17.1893 6.41682 17.1806C6.74344 16.8875 7.1617 16.4706 7.48078 15.9744C7.51204 15.9267 7.54223 15.8778 7.57026 15.8279C5.71182 15.5879 4.02693 14.6868 2.74414 13.2754H2.74522Z" fill="#00B2BB"></path><path id="Vector_4" d="M22.0364 9.11117C21.6494 8.52487 21.0231 8.05263 20.2933 8.10908C19.4838 8.17205 18.7561 8.91577 18.2624 9.50852C17.9714 9.85809 16.8955 11.2858 16.625 11.6159C18.4618 12.8112 20.649 13.5082 22.9969 13.5169C23.2427 12.1663 22.832 10.3142 22.0364 9.11007V9.11117Z" fill="#00B2BB"></path><path id="Vector_5" d="M16.6293 11.6174C16.6293 11.6174 16.6239 11.6228 16.6217 11.626C16.6066 11.6445 16.5937 11.6619 16.5775 11.6792C16.5452 11.7172 16.514 11.7563 16.4805 11.7954C16.4471 11.8334 16.4137 11.8725 16.3792 11.9116C16.3792 11.9137 16.377 11.9137 16.3759 11.9159C16.3296 11.9669 16.2844 12.019 16.238 12.0712C16.1938 12.12 16.1485 12.1689 16.1032 12.2177C16.0752 12.2481 16.0461 12.2796 16.017 12.3101C16.0019 12.3263 15.9847 12.3426 15.9696 12.3599C15.9394 12.3903 15.9092 12.4219 15.8791 12.4523C15.7281 12.6042 15.575 12.753 15.4154 12.8963C15.3993 12.9104 15.3842 12.9245 15.368 12.9386C13.2315 14.92 10.9321 15.8364 8.78809 15.8917C8.37627 15.9025 7.96987 15.8808 7.5721 15.8298C7.60443 15.7734 7.6357 15.7169 7.66588 15.6583C8.27817 14.4608 7.74241 12.9886 7.23038 11.5327C6.91453 10.6348 6.57389 9.56648 6.93932 8.62195C7.11935 8.15834 7.51604 7.88148 7.99358 7.79788C8.54551 7.70017 9.12766 7.81634 9.66229 7.95748C10.3328 8.13445 10.9818 8.3961 11.6145 8.67948C12.8359 9.22777 16.2067 11.3448 16.6304 11.6206V11.6185L16.6293 11.6174Z" fill="#3CA9D2"></path><path id="Vector_6" d="M23.0023 13.5184C22.8805 13.7203 22.7512 13.9168 22.6174 14.1112C22.6024 14.1351 22.5851 14.1568 22.569 14.1796C20.7665 16.7451 17.9822 18.5614 14.7676 19.0739C14.7439 19.0771 14.7213 19.0815 14.6975 19.0848C14.662 19.0912 14.6253 19.0956 14.5897 19.1C14.0518 19.1759 13.5032 19.215 12.9447 19.215C10.7478 19.215 8.68998 18.6081 6.93069 17.5517C6.74852 17.4421 6.56849 17.3281 6.39278 17.2087L6.39062 17.2065C6.40032 17.1989 6.41003 17.1891 6.41973 17.1804C6.74636 16.8884 7.16569 16.4704 7.48369 15.9742C7.51496 15.9265 7.54514 15.8765 7.57317 15.8277C7.97202 15.8787 8.37842 15.8993 8.78916 15.8896C10.9332 15.8342 13.2315 14.919 15.3692 12.9365C15.3853 12.9223 15.4015 12.9082 15.4166 12.8942C15.575 12.7508 15.7292 12.6021 15.8801 12.4501C15.9102 12.4197 15.9404 12.3882 15.9707 12.3578C15.9868 12.3415 16.003 12.3241 16.0181 12.3079C16.0472 12.2775 16.0763 12.2471 16.1043 12.2156C16.1496 12.1668 16.1959 12.1179 16.239 12.069C16.2865 12.018 16.3329 11.9659 16.377 11.9137C16.3792 11.9116 16.3792 11.9116 16.3803 11.9094C16.4148 11.8714 16.4482 11.8324 16.4816 11.7932C16.5139 11.7552 16.5474 11.7162 16.5786 11.6771C16.5937 11.6586 16.6077 11.6413 16.6228 11.6239C16.625 11.6217 16.6282 11.6185 16.6304 11.6152C18.4661 12.8106 20.6545 13.5065 23.0023 13.5163V13.5184Z" fill="#005E93"></path><path id="Vector_7" d="M45.5431 13.3277C46.135 12.4461 46.4303 11.3768 46.4303 10.1195C46.4303 8.86229 46.163 7.85368 45.6283 6.99706C45.0936 6.13936 44.3519 5.48687 43.4033 5.0374C42.4547 4.58792 41.3638 4.36426 40.1328 4.36426H33.3965V22.6126H36.7037V15.877H39.8191L43.5618 22.6126H47.3067L43.1479 15.2885C44.1526 14.864 44.9513 14.2104 45.5431 13.3288V13.3277ZM42.7576 11.5885C42.514 12.013 42.1745 12.3441 41.7368 12.5808C41.2991 12.8175 40.7796 12.9358 40.1802 12.9358H36.7026V7.30215H40.1802C40.7796 7.30215 41.2991 7.42048 41.7368 7.65717C42.1745 7.89384 42.5151 8.22064 42.7576 8.63642C43.0012 9.05226 43.122 9.54735 43.122 10.1185C43.122 10.6895 43.0002 11.164 42.7576 11.5885Z" fill="#005E93"></path><path id="Vector_8" d="M57.2889 9.59258C56.4621 9.19302 55.5049 8.99219 54.4193 8.99219C53.5278 8.99219 52.701 9.13872 51.9388 9.43298C51.1767 9.72714 50.5159 10.131 49.9564 10.6456C49.397 11.1602 48.9874 11.7683 48.7287 12.4707L51.3309 13.7442C51.5745 13.1406 51.9594 12.6542 52.4865 12.2872C53.0136 11.9202 53.6173 11.7368 54.2986 11.7368C55.0284 11.7368 55.6158 11.929 56.0621 12.3122C56.5084 12.6965 56.7305 13.1742 56.7305 13.7453V14.1763L52.7905 14.8223C51.7524 14.9862 50.8933 15.2631 50.213 15.6551C49.5318 16.047 49.0294 16.5334 48.7049 17.112C48.3805 17.6918 48.2188 18.3487 48.2188 19.0836C48.2188 19.8187 48.4052 20.5244 48.7782 21.1041C49.1512 21.6839 49.6784 22.129 50.3585 22.4396C51.0399 22.75 51.8419 22.9053 52.7657 22.9053C53.4955 22.9053 54.1595 22.8032 54.76 22.5992C55.3593 22.395 55.8951 22.1008 56.3651 21.7175C56.5548 21.5623 56.7316 21.3886 56.8998 21.2029V22.6122H59.9149V13.7453C59.9149 12.7986 59.6842 11.9691 59.2217 11.2591C58.7592 10.5491 58.1157 9.99425 57.2878 9.59359L57.2889 9.59258ZM56.3036 18.8383C56.0201 19.3453 55.6224 19.7405 55.1114 20.0261C54.6004 20.3116 54.0129 20.4549 53.3478 20.4549C52.8282 20.4549 52.3949 20.3202 52.0467 20.051C51.6975 19.7818 51.5239 19.418 51.5239 18.961C51.5239 18.5039 51.678 18.1033 51.9863 17.8102C52.2946 17.5159 52.7646 17.3118 53.3974 17.1978L56.7294 16.6278V17.174C56.7294 17.7787 56.5871 18.3334 56.3036 18.8394V18.8383Z" fill="#005E93"></path><path id="Vector_9" d="M67.5357 18.4775L64.1088 9.28711H60.6797L65.9165 22.6172L65.6168 23.3219C65.357 23.8766 65.0617 24.3218 64.7297 24.6572C64.3977 24.9916 63.8663 25.16 63.1364 25.16C62.8767 25.16 62.5974 25.1349 62.2977 25.0862C61.9981 25.0373 61.7426 24.9884 61.5313 24.9395V27.6093C61.8072 27.7558 62.1145 27.8579 62.4551 27.9154C62.7958 27.973 63.1439 28.0012 63.5008 28.0012C64.3276 28.0012 65.0606 27.8416 65.702 27.5235C66.3423 27.2054 66.9061 26.7439 67.3923 26.1392C67.8785 25.5345 68.2924 24.8082 68.633 23.9592L74.397 9.28711H70.9431L67.5367 18.4775H67.5357Z" fill="#005E93"></path><path id="Vector_10" d="M85.1194 9.62948C84.3661 9.20499 83.5027 8.99219 82.5293 8.99219C81.5559 8.99219 80.7657 9.20058 80.0607 9.61642C79.5164 9.93782 79.0916 10.3753 78.7844 10.9247V9.28525H75.793V22.6099H78.9784V14.7962C78.9784 14.2089 79.0916 13.703 79.3191 13.2774C79.5455 12.8529 79.8624 12.5217 80.2677 12.2851C80.673 12.0483 81.1344 11.9301 81.654 11.9301C82.1736 11.9301 82.6554 12.0483 83.0521 12.2851C83.4488 12.5217 83.7614 12.8529 83.9889 13.2774C84.2153 13.7019 84.3295 14.2078 84.3295 14.7962V22.6099H87.5147V14.0374C87.5147 13.0418 87.3034 12.1635 86.8826 11.4046C86.4609 10.6456 85.8729 10.054 85.1186 9.62838L85.1194 9.62948Z" fill="#005E93"></path><path id="Vector_11" d="M100.816 10.9279C100.265 10.3243 99.5955 9.84984 98.8098 9.50679C98.0232 9.16367 97.1111 8.99219 96.0742 8.99219C94.8422 8.99219 93.7273 9.29399 92.7304 9.89871C91.7325 10.5034 90.946 11.3231 90.3716 12.36C89.7955 13.3968 89.5078 14.5857 89.5078 15.9243C89.5078 17.263 89.7912 18.3899 90.3597 19.4517C90.9265 20.5135 91.7207 21.3538 92.7431 21.9749C93.7647 22.5959 94.9559 22.9053 96.3178 22.9053C97.2256 22.9053 98.0563 22.7663 98.8098 22.4884C99.5632 22.2105 100.217 21.8272 100.767 21.3376C101.319 20.8479 101.723 20.2844 101.983 19.6471L99.4062 18.3736C99.1135 18.8969 98.713 19.3127 98.2022 19.6222C97.6906 19.9326 97.0712 20.0879 96.3415 20.0879C95.6118 20.0879 94.967 19.9163 94.4078 19.5733C93.8478 19.2303 93.4261 18.7449 93.1427 18.1163C92.9696 17.7309 92.8619 17.3107 92.8186 16.8548H102.348C102.412 16.6756 102.457 16.4628 102.481 16.2175C102.507 15.9732 102.518 15.7365 102.518 15.5074C102.518 14.6095 102.373 13.7725 102.081 12.9973C101.788 12.2221 101.367 11.5316 100.816 10.9279ZM94.2984 12.1407C94.8168 11.8063 95.409 11.638 96.0742 11.638C96.7395 11.638 97.3665 11.8095 97.8611 12.1526C98.3558 12.4957 98.713 12.9604 98.9319 13.5488C99.0321 13.8169 99.0915 14.1036 99.1161 14.4065H92.8865C92.9399 14.122 93.018 13.856 93.119 13.6107C93.3862 12.9658 93.7799 12.4762 94.2984 12.1407Z" fill="#005E93"></path><path id="Vector_12" d="M111.551 19.9168C111.397 19.9331 111.264 19.9418 111.15 19.9418C110.631 19.9418 110.206 19.8604 109.874 19.6964C109.542 19.5336 109.298 19.2969 109.144 18.9864C108.99 18.6758 108.913 18.3002 108.913 17.8594V12.1519H111.953V9.28683H108.913V6.24902H105.728V7.27826C105.728 7.93185 105.549 8.42909 105.194 8.77214C104.836 9.11526 104.334 9.28683 103.685 9.28683H103.441V12.1519H105.728V18.0299C105.728 19.5325 106.138 20.6963 106.956 21.5204C107.774 22.3455 108.929 22.7569 110.421 22.7569C110.665 22.7569 110.933 22.7407 111.224 22.7082C111.516 22.6756 111.774 22.643 112.002 22.6104V19.8668C111.856 19.8831 111.706 19.8994 111.552 19.9157L111.551 19.9168Z" fill="#005E93"></path></g></g></g></g></g></g></g></g></g><defs><clipPath id="clip0_0_1"><rect width="112" height="28" fill="white"></rect></clipPath></defs></svg> 