<?xml version="1.0" encoding="UTF-8"?> <svg xmlns="http://www.w3.org/2000/svg" id="Warstwa_1" version="1.1" viewBox="0 500 2000 1000"><defs><style> .st0 { fill: #fff; } .st1 { fill: #0098ff; } </style></defs><path class="st1" d="M253.45,837.14c25.12,0,49.48,4.71,72.38,13.99,22.07,8.94,41.88,21.73,58.87,38.02,16.93,16.21,30.2,35.07,39.46,56.03,9.55,21.62,14.39,44.59,14.39,68.28s-4.84,46.65-14.39,68.28c-9.26,20.97-22.53,39.82-39.46,56.03-17,16.28-36.81,29.07-58.87,38.02-22.9,9.28-47.25,13.99-72.38,13.99s-49.48-4.71-72.38-13.99c-22.07-8.94-41.88-21.73-58.87-38.02-16.92-16.21-30.2-35.07-39.46-56.03-9.55-21.62-14.39-44.59-14.39-68.28s4.84-46.65,14.39-68.28c9.26-20.97,22.53-39.82,39.46-56.03,17-16.28,36.81-29.07,58.87-38.02,22.9-9.28,47.25-13.99,72.38-13.99M253.45,813.08c-115.51,0-209.16,89.71-209.16,200.37s93.64,200.37,209.16,200.37,209.16-89.71,209.16-200.37-93.64-200.37-209.16-200.37h0Z"></path><path class="st1" d="M304.76,968.53c7.09,10.31,11.25,22.79,11.25,36.24,0,35.36-28.66,64.02-64.02,64.02s-64.02-28.66-64.02-64.02c0-12.27,3.45-23.73,9.44-33.47-50.27,16.33-99.19,44.51-99.19,44.51,0,0,65.58,78.91,151.57,79.71,101.68.94,155.97-79.39,155.97-79.39,0,0-50.2-31.86-101-47.59h0Z"></path><path class="st1" d="M70.45,1011.31s177.2-140.8,364.65.21c0,0-174.06-212.97-364.65-.21h0Z"></path><g><path class="st0" d="M645.2,975.11c-2.32-22.49-15.88-33.41-43.66-33.41-25.8,0-39.36,9.26-39.36,25.8,0,13.89,9.59,21.83,34.07,27.78,24.81,5.95,48.95,11.91,65.16,19.18,19.18,8.6,34.4,22.16,34.4,53.25,0,48.29-36.38,69.79-87.65,69.79-54.25,0-91.95-24.15-92.95-73.43h44.32c.66,22.49,19.52,36.38,48.95,36.38,27.12,0,42.67-11.58,42.67-31.09,0-12.9-6.62-21.83-34.07-27.78-27.12-5.95-44.65-9.92-60.2-16.87-23.48-10.58-36.71-26.46-36.71-54.25,0-39.36,26.79-67.48,80.38-67.48s86.66,30.1,88.31,72.11h-43.66v.02Z"></path><path class="st0" d="M898.89,1129.91v-98.57c0-19.51-10.25-33.41-25.47-33.41s-27.45,14.88-27.45,34.73v97.25h-43v-97.91c0-26.13-6.95-32.75-25.8-32.75-17.2,0-26.13,10.58-26.13,31.75v98.9h-43v-162.74h40.35v23.82c10.92-21.5,26.13-28.12,47.63-28.12s32.75,6.95,45.31,25.8c8.93-17.86,23.48-25.8,43.99-25.8,32.75,0,55.57,23.82,55.57,54.25v112.79h-42.01.01Z"></path><path class="st0" d="M1059.31,1129.91c-1.32-3.97-2.32-9.59-2.65-14.55-10.25,11.25-27.45,18.85-49.28,18.85-37.05,0-54.25-18.19-54.25-44.65,0-46.97,31.42-52.26,74.75-58.21,21.5-2.98,27.45-7.28,27.45-18.52,0-10.58-10.58-16.87-27.45-16.87-19.51,0-27.45,9.59-29.44,24.15h-40.02c.66-33.74,19.18-57.22,71.44-57.22s69.46,23.15,69.46,64.17v102.87h-40.02v-.02ZM1056.33,1050.19c-4.3,4.3-11.91,6.62-27.79,9.59-24.48,4.63-32.41,11.58-32.41,25.47,0,12.24,7.28,18.19,20.84,18.19,22.16,0,38.7-16.21,39.03-35.39l.33-17.86h0Z"></path><path class="st0" d="M1118.18,1129.91v-162.74h40.35v19.52c14.22-21.83,30.76-23.82,48.29-23.82h5.62v43.99c-3.97-.66-7.94-.99-11.91-.99-26.46,0-39.36,13.23-39.36,39.36v84.68h-43,.01Z"></path><path class="st0" d="M1316.64,1022.74h40.02v46.31c0,34.4-19.85,65.16-65.82,65.16s-66.48-30.43-66.48-65.49v-145.54h42.34v43.99h89.97v30.43h-89.97v66.81c0,20.51,7.28,32.42,24.81,32.42s25.14-11.58,25.14-31.75v-42.34h-.01Z"></path><path class="st1" d="M1504.84,1129.91v-98.57h-85.67v98.57h-45.98v-219.63h45.98v82.69h85.67v-82.69h46.31v219.63h-46.31Z"></path><path class="st1" d="M1697.34,910.28h46.97v146.53c0,53.25-32.75,80.71-90.3,80.71-53.25,0-86.66-25.14-86.66-78.06v-149.17h46.64v144.88c0,27.12,14.55,44.32,39.36,44.32,29.44,0,43.99-13.89,43.99-42.67v-146.53h0Z"></path><path class="st1" d="M1761.18,1129.91v-219.63h108.16c43,0,66.15,23.15,66.15,59.87,0,18.85-11.58,34.73-26.79,41.02,18.52,6.95,33.41,21.83,33.41,53.25,0,40.02-26.79,65.49-82.03,65.49h-98.9ZM1805.5,948.32v47.63h57.88c18.19,0,27.79-8.27,27.79-23.81,0-16.87-8.93-23.82-30.43-23.82h-55.24ZM1863.72,1092.53c21.17,0,33.74-13.56,33.74-31.42,0-19.18-12.57-27.78-33.08-27.78h-58.88v59.21h58.22Z"></path></g></svg> 